<?xml version="1.0" standalone="no"?>
<!DOCTYPE svg PUBLIC "-//W3C//DTD SVG 20010904//EN"
 "http://www.w3.org/TR/2001/REC-SVG-20010904/DTD/svg10.dtd">
<svg version="1.0" xmlns="http://www.w3.org/2000/svg"
 width="700.000000pt" height="700.000000pt" viewBox="0 0 700.000000 700.000000"
 preserveAspectRatio="xMidYMid meet">
<metadata>
Created by potrace 1.11, written by Peter Selinger 2001-2013
</metadata>
<g transform="translate(0.000000,700.000000) scale(0.100000,-0.100000)"
fill="#000000" stroke="none">
<path d="M3239 6996 c-2 -2 -43 -6 -90 -10 -48 -3 -93 -8 -100 -10 -8 -3 -39
-7 -69 -11 -131 -14 -395 -77 -586 -140 -565 -186 -1125 -524 -1535 -926 -103
-101 -253 -265 -287 -314 -4 -6 -23 -30 -43 -55 -99 -124 -235 -362 -294 -517
-15 -37 -35 -88 -45 -113 -36 -90 -105 -345 -123 -455 -3 -16 -12 -70 -21
-120 -20 -121 -25 -162 -34 -280 -9 -129 -9 -573 1 -690 37 -449 128 -904 264
-1328 38 -121 114 -334 143 -402 57 -137 135 -303 196 -417 62 -116 212 -351
250 -393 11 -11 35 -40 55 -65 118 -147 364 -357 521 -445 214 -121 469 -218
673 -254 33 -6 71 -13 85 -16 14 -3 48 -7 75 -10 28 -3 79 -9 114 -14 72 -9
458 -7 536 3 28 3 70 9 95 12 74 9 221 32 280 44 30 6 66 14 80 16 14 3 52 12
85 21 33 8 70 17 82 19 124 23 712 228 758 264 6 4 21 11 35 15 38 10 440 210
526 261 41 24 77 44 80 44 9 0 299 183 409 258 230 157 519 384 673 529 157
147 241 234 352 363 36 41 70 80 75 86 6 6 21 26 35 44 14 18 38 49 54 69 67
83 209 309 263 418 142 283 194 503 188 788 -2 83 -6 161 -9 175 -3 13 -8 42
-12 64 -3 22 -7 43 -9 46 -2 3 -6 21 -9 40 -16 103 -89 304 -177 487 -189 397
-502 840 -1024 1448 -104 121 -194 225 -200 230 -6 6 -42 46 -81 90 -84 97
-70 82 -181 202 -50 55 -111 122 -135 149 -174 198 -390 388 -563 494 -205
126 -513 239 -740 273 -16 3 -46 8 -65 11 -19 3 -55 8 -80 12 -49 6 -466 15
-471 10z"/>
</g>
</svg>
