<?xml version="1.0" encoding="utf-8"?>
<!-- Generator: Adobe Illustrator 21.0.0, SVG Export Plug-In . SVG Version: 6.00 Build 0)  -->
<svg version="1.1" id="Layer_1" xmlns="http://www.w3.org/2000/svg" xmlns:xlink="http://www.w3.org/1999/xlink" x="0px" y="0px"
	 viewBox="0 0 120 120" style="enable-background:new 0 0 120 120;" xml:space="preserve">
<style type="text/css">
	.st0{fill:#1D0E4C;}
</style>
<title>acne</title>
<path class="st0" d="M58.8,51.4c-5.9,0-10.6-3-10.6-6.8s4.6-6.8,10.6-6.8c5.9,0,10.6,3,10.6,6.8S64.7,51.4,58.8,51.4z M58.8,40.9
	c-4.5,0-7.6,2-7.6,3.8s3.1,3.8,7.6,3.8s7.6-2,7.6-3.8S63.3,40.9,58.8,40.9z"/>
<path class="st0" d="M60,82.1c-26.7,0-47.6-8-47.6-18.2c0-9,21.7-16.1,37.2-18.2l0.4,3c-18.1,2.5-34.6,9.8-34.6,15.2
	c0,7.3,17.9,15.2,44.6,15.2C60,79.1,60,82.1,60,82.1z"/>
<path class="st0" d="M107.7,63.9h-3c0-5.6-17.5-12.9-36.8-15.2l0.4-3C84.6,47.7,107.7,54.7,107.7,63.9z"/>
<path class="st0" d="M37.4,64.2L36,61.5c9.5-4.9,10.7-9.4,12.2-17.7l3,0.5C49.6,53,48.1,58.6,37.4,64.2z"/>
<path class="st0" d="M81,63.3C73,60.5,65.7,50,66.4,44.4l3,0.4c-0.5,3.9,5.7,13.3,12.6,15.6L81,63.3z"/>
<path class="st0" d="M36.8,74.4c-1.6,0-3.1-0.8-4.1-2.1l-0.1-0.2c-0.2-0.4-0.5-0.9-0.8-1.3c-0.4-0.4-1.2-0.5-2.4-0.6
	c-0.9-0.1-1.9-0.1-2.9-0.5c-2.8-1.3-4.2-4.3-3.3-7.1c1-2.7,3.5-4.5,6.3-4.6l0.1,3c-1.6,0-3,1.1-3.5,2.6c-0.4,1.3,0.3,2.8,1.6,3.4
	c0.5,0.2,1.2,0.2,1.9,0.3c1.5,0.1,3.3,0.3,4.5,1.7l0.1,0.1c0.3,0.5,0.6,1,0.9,1.5c0.5,0.7,1.4,0.9,2.2,0.7l1,2.8
	C37.9,74.3,37.3,74.4,36.8,74.4z"/>
<path class="st0" d="M77.1,72.6c-1,0-2.1-0.2-3-0.7l1.3-2.7c1.4,0.7,3.1,0.5,4.4-0.5c0.3-0.3,0.6-0.6,1-1c0.8-0.8,1.6-1.8,2.9-2.2
	c1.3-0.5,2.6-0.2,3.8,0c0.8,0.2,1.5,0.3,2.1,0.2c1.3-0.2,2.3-1.8,3.1-3.5l0.1-0.1c0.2-0.3,0.3-0.5,0.3-0.8c0-0.2-0.1-0.4-0.3-0.5
	c-0.7-0.9-1.5-1.5-2.5-2l1.2-2.7c1.4,0.6,2.6,1.6,3.6,2.8c0.5,0.5,0.8,1.3,1,2.1v0.1v0.1c0,0.9-0.3,1.7-0.7,2.4
	c-0.8,1.6-2.3,4.5-5.2,5.1c-1.2,0.2-2.2,0-3.2-0.2c-0.9-0.2-1.6-0.3-2.2-0.1c-0.6,0.2-1.1,0.8-1.6,1.4c-0.4,0.4-0.8,0.9-1.3,1.3
	C80.3,72.1,78.7,72.6,77.1,72.6z"/>
<path class="st0" d="M46.3,74.4L43.7,73c2.3-4.2,7.4-5.8,11.7-3.7l0.2,0.1c1,0.7,2.1,1.3,3.2,1.8c0.4,0.1,0.8,0.1,1.1-0.1
	c0.2-0.1,0.2-0.2,0.2-0.2l2.9,0.8c-0.2,0.9-0.8,1.6-1.7,2.1c-1,0.6-2.4,0.7-3.6,0.3L57.5,74c-1.2-0.6-2.5-1.3-3.6-2.1
	C51.2,70.6,47.8,71.6,46.3,74.4z"/>
</svg>
