<?xml version="1.0" encoding="utf-8"?>
<!-- Generator: Adobe Illustrator 21.0.0, SVG Export Plug-In . SVG Version: 6.00 Build 0)  -->
<svg version="1.1" id="Layer_1" xmlns="http://www.w3.org/2000/svg" xmlns:xlink="http://www.w3.org/1999/xlink" x="0px" y="0px"
	 viewBox="0 0 120 120" style="enable-background:new 0 0 120 120;" xml:space="preserve">
<style type="text/css">
	.st0{fill:#1D0E4C;}
</style>
<path class="st0" d="M42.8,89.4c-0.3,0.1-0.7,0.1-1,0.1c-0.3,0-0.7,0-1,0.1c-2.2,0.5-3.6,2.2-4.9,3.9l2.4,1.8c1-1.3,1.9-2.5,3.1-2.7
	c0.1,0,0.3,0,0.4,0c1.2,0.1,2.3-0.3,3.2-1.1c0.6-0.8,0.9-1.7,0.8-2.7l-3,0.2C42.8,89.1,42.8,89.2,42.8,89.4z"/>
<path class="st0" d="M41.2,85.3h0.3c0.6,0,1.1-0.2,1.6-0.5l0.2-0.1c0.3-0.3,0.6-0.7,0.8-1.1l1.5-3.1l-2.7-1.3l-1.6,3.1
	c-0.5,0-0.9-0.2-1.2-0.6L38,83.9C38.9,84.8,40,85.3,41.2,85.3z"/>
<path class="st0" d="M53.8,79.8c-0.3-0.3-0.6-0.6-0.8-1c0,0.1,0,0.1,0,0.2l-2.9,0.7c0.2,1.1,2.4,3.5,4.1,3.5c0.1,0,0.2,0,0.3,0
	c1-0.3,1.7-1,2-2c0.6-1.4,1.9-2.5,3.5-2.7l-0.5-3C57,75.9,54.9,77.5,53.8,79.8z"/>
<path class="st0" d="M34.7,77.3c-0.4,0.2-0.8,0.4-1.3,0.4c-0.9-0.1-1.7-0.1-2.6,0.1l-0.2,0.1c-1.3,0.4-2.8,1.7-2.8,5.3h3
	c0-1.3,0.3-2.2,0.7-2.5c0.5-0.1,1.1-0.1,1.6,0h0.2c1,0,2-0.3,2.9-0.8L34.7,77.3z"/>
<path class="st0" d="M61.9,51.2c0.4,0.3,0.8,0.6,1.3,0.8c1.5,0.5,3.2-0.1,3.9-1.5L64.5,49c-0.1,0.1-0.2,0.2-0.3,0.1
	c-0.2-0.1-0.4-0.2-0.5-0.3c-0.7-0.6-1.5-0.9-2.4-0.9c-1.1,0.2-2.1,0.9-2.6,1.9l2.5,1.6c0.1-0.2,0.2-0.3,0.3-0.5L61.9,51.2z"/>
<path class="st0" d="M69.1,39.5c0.3,0,0.5,0,0.8-0.1c1.3-0.2,2.9-1.1,3.3-2.3l0.1-0.2c0.2-0.9,0.1-1.8-0.1-2.7c0-1,0.4-1.9,1.2-2.6
	l-1.9-2.3c-1.5,1.3-2.4,3.2-2.2,5.2v0.2c0.1,0.4,0.1,0.9,0.1,1.3c-0.4,0.3-0.8,0.4-1.2,0.4c-0.3,0-0.6-0.2-0.8-0.4l-2.4,1.8
	C66.6,38.9,67.9,39.5,69.1,39.5z"/>
<path class="st0" d="M53.3,69.4c-0.1,0.2-0.2,0.5-0.3,0.7l2.6,1.5c0.2-0.3,0.4-0.7,0.5-1c0.7-1.5,1.1-2.2,2-2.2v-3
	C55,65.3,53.9,68,53.3,69.4z"/>
<path class="st0" d="M73,62.1c-1.4-1.8-3.8-1.7-5.5-1.1c-2.9,1-5.1,3.4-6,6.4l2.9,0.8c0.6-2,2.1-3.7,4.1-4.4
	c0.7-0.3,1.5-0.3,2.1,0.1c0.3,0.5,0.4,1,0.3,1.5l3,0.4c0.2-1.2-0.1-2.5-0.7-3.5L73,62.1z"/>
<path class="st0" d="M70.5,52.5c0,0.3,0,0.7-0.1,1c-0.2,0.6-1.1,1-2.1,1.5c-0.9,0.4-1.7,0.9-2.5,1.5l2,2.2c0.6-0.4,1.2-0.7,1.8-1
	c1.4-0.7,3.1-1.5,3.7-3.3c0.2-0.6,0.2-1.1,0.2-1.7c0-0.9,0-1,0.8-1.2l-1.1-2.8C71.5,49.2,70.4,50.8,70.5,52.5z"/>
<path class="st0" d="M83.6,47.2L83.6,47.2l-0.1-0.1c-1.2-1.2-3.1-1.4-4.5-0.4c-1,0.7-1.7,1.6-2.2,2.7l2.7,1.3
	c0.3-0.6,0.7-1.2,1.3-1.6c0.2-0.1,0.4-0.1,0.6,0l0,0c0.2,0.4,0.6,0.7,1,0.9l0.2,0.1c0.4,0.1,0.8,0.1,1.1,0c1.1-0.1,2.3-0.3,3.3-0.8
	l-1.2-2.8C85.1,46.9,84.4,47.1,83.6,47.2z"/>
<path class="st0" d="M81.3,37.2c-0.2-0.2-0.4-0.4-0.6-0.6c-0.5-0.9-1.4-1.4-2.4-1.6c-1.1,0-2.1,0.5-2.7,1.3l2.1,2.1
	c0.1-0.1,0.2-0.2,0.4-0.3l0.3,0.3c0.6,1,1.7,1.7,2.9,1.8c0.3,0,0.5,0,0.8-0.1c2.3-0.5,5.6-5,5.6-5.1l-2.4-1.8
	C84.1,34.8,82,37,81.3,37.2z"/>
<path class="st0" d="M83.4,25.4c-2.5-0.4-4.9,0.9-5.9,3.1l2.7,1.3c0.5-1,1.5-1.6,2.7-1.5c1.1,0.3,2.1,1,2.9,1.8l2.2-2
	c-1.2-1.3-2.7-2.2-4.4-2.7L83.4,25.4z"/>
<path class="st0" d="M95.1,35.4c-0.1-0.3,0.1-0.6,0.4-0.7l-0.8-2.9c-1.9,0.5-3,2.5-2.5,4.4c0.1,0.3,0.2,0.6,0.3,0.8
	c0.1,0.1,0.1,0.3,0.2,0.4c0.1,0.4-0.3,1-0.9,1.8c-0.9,1-1.4,2.2-1.5,3.6h3c0.1-0.7,0.5-1.3,0.9-1.8c0.8-1.1,1.8-2.5,1.3-4.3
	c-0.1-0.3-0.2-0.6-0.4-0.9C95.2,35.6,95.2,35.5,95.1,35.4z"/>
<path class="st0" d="M72.1,43.4L72.1,43.4c-3-1.8-4.7-0.6-5.7,0.7l2.4,1.8c0.3-0.5,0.5-0.6,1.6,0c0.2,0.1,0.4,0.2,0.7,0.3
	c0.5,0.2,1,0.2,1.5,0.2c0.5,0,0.9-0.1,1.3-0.2c1.7-0.4,3.2-1.4,4.3-2.8l-2.4-1.8c-0.7,0.9-1.6,1.5-2.7,1.8
	C72.8,43.5,72.4,43.5,72.1,43.4z"/>
<path class="st0" d="M37.2,68.4c0.2-0.5,0.5-0.9,0.9-1.2c0.2-0.1,0.5-0.2,0.7-0.3c0.4-0.1,0.9-0.3,1.2-0.5c1.7-0.8,2.4-2.5,3-3.9
	l0.1-0.2c0.6-1.3,1.1-2,1.7-2.1l-0.6-2.9c-2.4,0.5-3.5,3-3.9,3.8l-0.1,0.2c-0.3,1-0.9,1.8-1.7,2.5c-0.2,0.1-0.5,0.2-0.7,0.2
	c-0.5,0.1-0.9,0.3-1.3,0.5c-1.1,0.6-1.9,1.7-2.3,2.9c-0.3,1-0.5,2-0.6,3l3,0.2C36.8,69.9,36.9,69.2,37.2,68.4z"/>
<path class="st0" d="M46.7,72c-0.3-0.5-0.5-1-0.8-1.5c-0.3-0.7-0.9-1.2-1.7-1.4l-0.5-0.2l-0.5,0.2c-1.4,0.6-2.8,1.4-4.1,2.2l1.6,2.5
	c0.9-0.6,1.8-1.1,2.7-1.5c0.3,0.7,0.7,1.4,1.2,2.1c0.3,0.4,0.7,0.6,1.1,0.8l0.3,0.1h0.3c0.4,0,0.8-0.1,1.1-0.2l1.8-0.8L48,71.4
	L46.7,72z"/>
<path class="st0" d="M52.9,59.4c0,0.1,0.1,0.1,0.1,0.2c-0.2,0.2-0.4,0.4-0.6,0.5l1.8,2.4c1-0.6,1.7-1.7,1.9-2.9v-0.2
	c-0.1-0.6-0.2-1.1-0.5-1.6c-0.5-1.1-1.1-2.4-0.7-3.3c0.3-0.5,0.7-0.9,1.1-1.4l0.1-0.1c1.4-2,1.6-4.6,0.4-6.8l-0.1-0.1
	c0-0.1-0.1-0.1-0.1-0.2l-2.9,0.7c0.1,0.4,0.2,0.7,0.5,1.1c0.6,1.1,0.5,2.5-0.2,3.5c-0.5,0.5-1,1.1-1.4,1.7l-0.1,0.1
	c-1.1,2.1-0.2,4.4,0.7,6.2L52.9,59.4z"/>
<path class="st0" d="M97.9,24.5c-4.2-5.2-11-7.5-17.5-5.8c-3.7,1.1-6.9,3.4-9.8,5.6C55,36.2,40.8,49.8,28.2,64.9l-1.5,1.7
	c-4.5,5.2-9.1,10.6-7.7,18.8c1.3,7.7,8.4,14.8,16.2,16.2c1.2,0.2,2.4,0.3,3.6,0.3c9.9,0,16.1-8,21.6-15.1c1.7-2.1,3.2-4.2,4.9-6
	l16-17.6c15-16.6,17.4-19.6,17.8-20.3C102.4,37,101.9,29.8,97.9,24.5z M96.5,41.4c-0.3,0.6-3.1,3.9-17.5,19.9L63,78.8
	c-1.7,1.9-3.4,4.1-5,6.2c-5.9,7.6-12,15.5-22.2,13.7l0,0c-6.7-1.2-12.8-7.2-13.8-13.7c-1.2-6.8,2.6-11.2,7-16.4l1.5-1.8
	c12.5-14.9,26.6-28.3,42-40.2c2.8-2.2,5.6-4.2,8.8-5.1c5.3-1.4,10.9,0.5,14.3,4.7C98.8,30.7,99.2,36.6,96.5,41.4z"/>
</svg>
