<?xml version="1.0" encoding="utf-8"?>
<!-- Generator: Adobe Illustrator 21.0.0, SVG Export Plug-In . SVG Version: 6.00 Build 0)  -->
<svg version="1.1" id="Layer_1" xmlns="http://www.w3.org/2000/svg" xmlns:xlink="http://www.w3.org/1999/xlink" x="0px" y="0px"
	 viewBox="0 0 120 120" style="enable-background:new 0 0 120 120;" xml:space="preserve">
<style type="text/css">
	.st0{fill:#1D0E4C;}
</style>
<path class="st0" d="M51.7,61.4c-13.2,0-23.5,5.3-23.5,12.2s10.3,12.2,23.5,12.2s23.5-5.4,23.5-12.2S64.9,61.4,51.7,61.4z
	 M51.7,82.9c-12.3,0-20.5-4.8-20.5-9.2s8.2-9.2,20.5-9.2s20.5,4.8,20.5,9.2S64,82.9,51.7,82.9z"/>
<path class="st0" d="M53.7,76.8c-2.1,0-4.2-0.2-6.2-0.7L46.8,79c2.2,0.5,4.5,0.8,6.8,0.8h0.2c8.3,0,14.5-3.1,14.5-7.2h-3
	C65.2,74.2,60.7,76.8,53.7,76.8z"/>
<path class="st0" d="M57.4,46.3c0-6.8-10.3-12.2-23.5-12.2s-23.5,5.4-23.5,12.2s10.3,12.2,23.5,12.2S57.4,53.2,57.4,46.3z
	 M13.3,46.3c0-4.4,8.3-9.2,20.5-9.2s20.5,4.8,20.5,9.2c0,4.5-8.2,9.2-20.5,9.2S13.3,50.8,13.3,46.3z"/>
<path class="st0" d="M35.9,52.4c8.3,0,14.5-3.1,14.5-7.2h-3c0,1.7-4.5,4.2-11.5,4.2c-2.1,0-4.2-0.2-6.2-0.7l-0.7,2.9
	c2.2,0.5,4.5,0.8,6.8,0.8L35.9,52.4z"/>
<path class="st0" d="M86.1,38.7c-13.2,0-23.5,5.4-23.5,12.2s10.3,12.2,23.5,12.2s23.5-5.3,23.5-12.2C109.7,44,99.3,38.7,86.1,38.7z
	 M86.1,60.1c-12.3,0-20.5-4.8-20.5-9.2s8.2-9.2,20.5-9.2s20.5,4.8,20.5,9.2S98.4,60.1,86.1,60.1z"/>
<path class="st0" d="M88.1,54h-0.2c-2,0-4.1-0.2-6.1-0.7l-0.7,2.9c2.2,0.5,4.5,0.8,6.8,0.8h0.2c8.3,0,14.5-3.1,14.5-7.2h-3
	C99.6,51.5,95.1,54,88.1,54z"/>
</svg>
