<?xml version="1.0" encoding="utf-8"?>
<!-- Generator: Adobe Illustrator 21.0.0, SVG Export Plug-In . SVG Version: 6.00 Build 0)  -->
<svg version="1.1" id="Layer_1" xmlns="http://www.w3.org/2000/svg" xmlns:xlink="http://www.w3.org/1999/xlink" x="0px" y="0px"
	 viewBox="0 0 120 120" style="enable-background:new 0 0 120 120;" xml:space="preserve">
<style type="text/css">
	.st0{fill:#1D0E4C;}
</style>
<path class="st0" d="M54.6,15.9c-4-2.3-9.1,1.9-12,6.9c-1,1.7-2.3,1.9-4,2.2c-2.3,0.4-5.2,0.9-6.7,5.5c-0.9,2.6-2.6,4.9-4.7,6.6
	c-2.1,2-4.3,4-3.7,7.9c0.1,1.7,0.1,3.5,0,5.2v0.1c0,1.2-1.6,2.8-3.2,4.2c-2,1.8-4,3.7-4.2,6.2c0,1.8,0.5,3.5,1.4,5
	c0.6,1,0.9,2.1,1.1,3.3c0,1.2-0.3,2.4-0.7,3.6c-0.7,1.7-1,3.6-0.7,5.4c0.5,2.2,1.9,3.8,3.4,5.3c1,1,1.8,2.1,2.4,3.3
	c0.3,0.8,0.5,1.6,0.6,2.4c0.4,1.9,0.9,4.4,3.2,5.7c0.9,0.4,1.8,0.8,2.8,0.9c0.5,0.1,1,0.2,1.5,0.4c1.3,0.6,2.3,1.6,3.1,2.7
	c1.1,1.5,2.5,2.7,4.1,3.5c1.9,0.7,3.9,1.1,5.9,1c1.4,0,2.8,0.2,4.1,0.5c1.3,0.5,2.6,0.8,4,0.8c0.9,0,1.9-0.2,2.7-0.7
	c1.9-1.2,2.4-3.9,2.6-6c0.4-3.6,0.6-16.8,0.4-20.4c-0.4-10.1-0.4-20.3-0.2-30.4c0.1-5.9,0.2-11.4,0.3-16.7l0,0c0-0.6,0-1.3,0-2
	C58.3,23.6,58.4,18.1,54.6,15.9z M55.2,28.4c0,0.7,0,1.4,0,2.1c0,5.3-0.1,10.7-0.3,16.6c-0.2,10.1-0.2,20.4,0.2,30.6
	c0.1,3.5-0.1,16.6-0.4,20c-0.2,2.1-0.6,3.4-1.3,3.8s-2,0.3-4.1-0.4c-1.6-0.5-3.3-0.7-5-0.7c-1.6,0.1-3.2-0.2-4.7-0.8
	c-1.2-0.7-2.2-1.6-3-2.7c-1.1-1.5-2.6-2.8-4.3-3.6c-0.7-0.2-1.3-0.4-2-0.6c-0.7-0.1-1.3-0.3-2-0.6c-1.1-0.6-1.4-1.8-1.8-3.7
	c-0.2-1-0.4-2-0.8-3c-0.8-1.5-1.8-2.9-3-4.1c-1.2-1.3-2.3-2.5-2.6-3.9c-0.1-1.3,0.1-2.7,0.6-3.9c0.6-1.5,0.9-3.1,0.8-4.7
	c-0.2-1.5-0.7-3-1.4-4.3c-0.6-1.1-1-2.3-1.1-3.6c0.1-1.2,1.6-2.7,3.2-4.1c2.1-1.9,4.2-3.8,4.1-6.4c0.1-1.9,0.1-3.7,0-5.6v-0.2
	c-0.4-2.3,0.6-3.4,2.8-5.4c2.5-2.1,4.4-4.8,5.5-7.9c1-2.8,2.3-3.1,4.4-3.5s4.3-0.8,6.1-3.6c2.2-3.7,5.9-7,8-5.8
	C55.4,19.8,55.3,24.6,55.2,28.4z"/>
<path class="st0" d="M32.7,69.9c0.1-2.6-2-3.4-3.3-3.9c-1.5-0.6-1.9-0.7-1.5-2.2l0.4-1.5l-2.9-0.8L25,63c-1.1,4,1.7,5.2,3.3,5.8
	s1.4,0.7,1.4,1l0,1.5l3,0.1L32.7,69.9z"/>
<path class="st0" d="M42.1,38.9c0,1.1-0.1,2.1-0.3,3.1c-0.2,1-0.4,2.1-0.4,3.2c0,0.8,0.2,1.6,0.6,2.3l0.7,1.3l2.6-1.5L44.5,46
	c-0.1-0.2-0.2-0.5-0.2-0.8c0-0.9,0.2-1.8,0.4-2.7c0.3-1.3,0.5-2.7,0.4-4c-0.2-2.4-3-5.5-4.5-6.6L39.5,31l-1.8,2.4l1.2,0.9
	C40.2,35.4,42,37.8,42.1,38.9z"/>
<path class="st0" d="M48.4,72.1c0-1,0.5-2,1.3-2.6l1.2-0.9L49,66.3l-1.2,0.9c-1.5,1.2-2.4,3-2.4,4.9c0.1,1.2,0.6,2.3,1.6,3
	c0.8,0.8,1.1,1.2,1,2.1l-0.2,1.5l3,0.3l0.2-1.4c0.2-1.7-0.6-3.4-1.9-4.6C48.6,72.6,48.4,72.3,48.4,72.1z"/>
<path class="st0" d="M42.9,78.3c-0.5-2.6-1.2-6.6-4.7-6.6c-2.3,0-2.8,2.4-3.2,3.9c-0.5,2-0.7,2.3-1.2,2.3l-1.5-0.1l-0.2,3l1.5,0.1
	c3.2,0.2,3.9-2.9,4.2-4.6c0.1-0.5,0.2-1.1,0.4-1.6c0.8,0.2,1.2,2,1.6,4.1c0.1,0.7,0.2,1.3,0.4,1.9l0.4,1.4l2.9-0.8L43.2,80
	C43.1,79.5,43,79,42.9,78.3z"/>
<path class="st0" d="M44,62.7l-1.3,0.8c-0.9,0.6-2.1,0.4-2.7-0.4c-0.5-0.8-0.8-1.6-0.8-2.5c-0.1-0.7-0.3-1.3-0.5-2
	c-0.1-0.5-0.4-1-0.8-1.3l-0.2-0.2c-0.6-0.4-1.2-0.5-1.9-0.4l-1.5,0.2l0.4,3l1.2-0.2c0.1,0.4,0.2,0.9,0.3,1.4
	c0.2,1.4,0.7,2.7,1.5,3.9c1.6,1.9,4.4,2.3,6.6,1l1.3-0.8L44,62.7z"/>
<path class="st0" d="M31.4,52.3c1.3,0,2.5-0.6,3.3-1.7c0.8-1.3,1.1-2.8,0.7-4.3c-0.1-0.4-0.2-0.7-0.3-1.1c-0.1-0.3-0.2-0.6-0.3-0.9
	c-0.1-0.7,0.1-1.5,0.6-2.1c0.1-0.2,0.3-0.3,0.5-0.3l1.5-0.2l-0.5-3l-1.5,0.2c-0.9,0.1-1.7,0.6-2.3,1.2c-1.2,1.2-1.7,3-1.4,4.6
	c0.1,0.5,0.2,1,0.4,1.4c0.1,0.3,0.2,0.6,0.3,0.9c0.2,0.6,0.1,1.3-0.2,1.8c-0.3,0.3-0.7,0.5-1.1,0.3l-1.4-0.5l-1,2.8l1.4,0.5
	C30.5,52.2,30.9,52.3,31.4,52.3z"/>
<path class="st0" d="M51,27.8c-0.3-0.5-0.5-1.2-0.5-1.8l1.2-0.7l-1.5-2.6l-1.3,0.8c-1.9,1.1-1.7,3.9-0.5,5.9
	c0.4,0.6,0.8,1.1,1.3,1.5c0.4,0.4,0.8,0.8,1,1.3c-0.1,0.7-0.3,1.3-0.7,1.8c-0.9,1.3-1,2.9-0.4,4.3l0.6,1.4l2.8-1.2l-0.6-1.4
	c-0.2-0.4-0.2-0.9,0.1-1.3c0.8-1,1.2-2.3,1.3-3.6V32c-0.2-1.3-0.9-2.4-1.9-3.2C51.5,28.5,51.2,28.2,51,27.8z"/>
<path class="st0" d="M50.7,55.4l-0.1-0.1c-1.6-2.1-4.2-3.1-6.8-2.7l-1.5,0.3l0.5,3l1.5-0.3c1.5-0.3,3,0.3,3.9,1.5
	c0.4,0.7,0.8,1.4,1,2.2l0.5,1.4l2.8-0.9L52,58.4C51.7,57.4,51.2,56.4,50.7,55.4z"/>
<path class="st0" d="M36.3,87.1c-0.4-0.1-0.8-0.2-1.2-0.3c-0.6-0.2-1-0.6-1.3-1.2l-0.6-1.4l-2.7,1.3l0.6,1.4
	c0.6,1.2,1.6,2.2,2.9,2.7c0.5,0.2,1.1,0.3,1.6,0.4c0.4,0.1,0.8,0.2,1.2,0.3l1.4,0.6l1.2-2.7l-1.4-0.6C37.5,87.4,36.9,87.2,36.3,87.1
	z"/>
<path class="st0" d="M48.7,94.3c0-0.8,0-1.6,0.2-2.4v-0.1c0-0.4,0.1-0.9,0.2-1.4c0.5-1.7,0.5-3.5-0.1-5.2l-0.6-1.4L45.6,85l0.6,1.4
	c0.3,1.1,0.3,2.3,0,3.4c-0.1,0.5-0.2,1-0.2,1.5c-0.2,1-0.3,2-0.2,3c0,1.5,0.9,2.8,2.3,3.5l1.4,0.6l1.2-2.7L49.2,95
	C48.9,94.9,48.7,94.6,48.7,94.3z"/>
<path class="st0" d="M101.3,69.1c0.2-1.1,0.6-2.2,1.1-3.3c0.9-1.5,1.3-3.2,1.4-5c-0.1-2.5-2.2-4.4-4.2-6.2c-1.6-1.5-3.2-3-3.2-4.2
	v-0.1c-0.1-1.7-0.1-3.5,0-5.2c0.6-4-1.6-6-3.7-7.9c-2.2-1.7-3.8-4-4.7-6.6c-1.5-4.5-4.4-5-6.7-5.5c-1.8-0.3-3-0.5-4-2.2
	c-3-5-8-9.2-12-6.9c-3.8,2.2-3.7,7.7-3.6,12.5c0,0.7,0,1.4,0,2l0,0c0,5.3,0.1,10.8,0.3,16.7c0.2,10.1,0.2,20.3-0.2,30.4
	c-0.1,3.6,0.1,16.8,0.4,20.4c0.2,2.1,0.7,4.8,2.6,6c0.8,0.5,1.7,0.7,2.7,0.7c1.4-0.1,2.7-0.3,4-0.8c1.3-0.4,2.7-0.5,4.1-0.5
	c2,0.1,4-0.3,5.9-1c1.6-0.8,3-2,4.1-3.5c0.8-1.2,1.9-2.1,3.1-2.7c0.5-0.2,1-0.3,1.6-0.4c1-0.2,1.9-0.5,2.8-0.9
	c2.3-1.3,2.8-3.7,3.2-5.7c0.1-0.8,0.3-1.6,0.6-2.3c0.6-1.2,1.5-2.3,2.5-3.3c1.4-1.5,2.9-3.1,3.3-5.3c0.2-1.8,0-3.7-0.7-5.4
	C101.6,71.6,101.4,70.4,101.3,69.1z M99.2,73.6c0.5,1.2,0.7,2.6,0.6,3.9c-0.3,1.3-1.4,2.6-2.6,3.9c-1.2,1.2-2.2,2.6-3,4.1
	c-0.4,1-0.6,2-0.8,3c-0.4,1.9-0.6,3-1.8,3.7c-0.6,0.3-1.3,0.5-1.9,0.6c-0.7,0.1-1.3,0.3-2,0.6c-1.7,0.8-3.2,2-4.3,3.6
	c-0.8,1.1-1.8,2-3,2.7c-1.5,0.5-3.1,0.8-4.7,0.8c-1.7,0-3.4,0.2-5,0.7c-2.1,0.7-3.5,0.8-4.1,0.4s-1.1-1.7-1.3-3.8
	c-0.3-3.4-0.5-16.5-0.4-20c0.4-10.1,0.4-20.4,0.2-30.6c-0.1-5.9-0.2-11.4-0.3-16.6c0-0.7,0-1.4,0-2.1c-0.1-3.8-0.2-8.6,2.1-9.9
	c2.1-1.2,5.7,2.1,8,5.8c1.7,2.9,4.1,3.3,6.1,3.6s3.5,0.6,4.4,3.5c1.1,3.1,3,5.8,5.5,7.9c2.1,2,3.1,3,2.8,5.4v0.2
	c-0.1,1.9-0.1,3.7,0,5.6c0,2.6,2.1,4.5,4.1,6.4c1.5,1.4,3.1,2.9,3.2,4.1c-0.1,1.3-0.5,2.5-1.1,3.6c-0.7,1.3-1.2,2.8-1.4,4.3
	C98.4,70.5,98.6,72.1,99.2,73.6z"/>
<path class="st0" d="M94.5,61.6l-2.9,0.8l0.4,1.5c0.4,1.4,0.1,1.6-1.5,2.2c-1.3,0.5-3.4,1.3-3.3,3.9l0.1,1.5l3-0.1l-0.1-1.5
	c0-0.3,0-0.4,1.4-1s4.4-1.7,3.3-5.8L94.5,61.6z"/>
<path class="st0" d="M78,47.5c0.4-0.7,0.6-1.5,0.5-2.2c0-1.1-0.1-2.2-0.4-3.2c-0.3-1-0.4-2.1-0.3-3.1c0.1-1.1,2-3.5,3.3-4.5l1.2-0.9
	L80.5,31l-1.2,1c-1.4,1.1-4.2,4.2-4.5,6.7c-0.1,1.3,0.1,2.7,0.4,4c0.2,0.9,0.3,1.8,0.4,2.8c0,0.2,0,0.5-0.2,0.7l-0.7,1.3l2.6,1.5
	L78,47.5z"/>
<path class="st0" d="M72.1,67.2L71,66.3l-1.8,2.4l1.2,0.9c0.8,0.6,1.3,1.6,1.3,2.6c0,0.2-0.3,0.5-0.7,0.9c-1.4,1.1-2.1,2.8-1.9,4.6
	l0.2,1.4l3-0.3L72,77.3c-0.1-1,0.3-1.4,1-2.1c1-0.8,1.6-1.9,1.6-3.1C74.5,70.1,73.6,68.4,72.1,67.2z"/>
<path class="st0" d="M81.6,74.8c0.2,0.5,0.3,1,0.4,1.6c0.4,1.7,1.1,4.8,4.2,4.6l1.5-0.1l-0.2-3L86,78c-0.4,0-0.7-0.3-1.1-2.3
	c-0.4-1.6-0.9-3.9-3.2-3.9c-3.5,0-4.2,3.9-4.7,6.6c-0.1,0.6-0.2,1.2-0.4,1.7l-0.4,1.4l2.9,0.8l0.4-1.4c0.1-0.6,0.3-1.2,0.4-1.9
	C80.4,76.8,80.8,75,81.6,74.8z"/>
<path class="st0" d="M82.3,65c0.8-1.1,1.3-2.5,1.5-3.9c0.1-0.5,0.2-1,0.3-1.4l1.2,0.2l0.4-3l-1.5-0.2c-0.7-0.1-1.3,0.1-1.9,0.4
	L82,57.3c-0.4,0.4-0.7,0.8-0.8,1.3c-0.2,0.7-0.3,1.3-0.4,2c-0.1,0.9-0.4,1.7-0.8,2.5c-0.7,0.8-1.8,1-2.7,0.4L76,62.7l-1.6,2.5
	l1.3,0.8c0.8,0.5,1.8,0.8,2.7,0.8C79.8,66.8,81.3,66.2,82.3,65z"/>
<path class="st0" d="M84.6,42.2c0.5,0.5,0.7,1.3,0.6,2c-0.1,0.3-0.2,0.6-0.3,1c-0.1,0.3-0.2,0.7-0.3,1c-0.4,1.5-0.2,3.1,0.7,4.4
	c1,1.5,2.9,2.1,4.6,1.5l1.4-0.5l-1-2.8l-1.4,0.5c-0.4,0.1-0.8,0-1.1-0.3c-0.4-0.6-0.5-1.3-0.3-1.9c0.1-0.3,0.2-0.5,0.3-0.8
	c0.2-0.5,0.3-0.9,0.4-1.4c0.3-1.7-0.2-3.4-1.4-4.6c-0.6-0.7-1.4-1.1-2.3-1.2l-1.5-0.2l-0.4,3l1.5,0.2C84.3,42,84.5,42.1,84.6,42.2z"
	/>
<path class="st0" d="M67,38.5l2.7,1.2l0.6-1.4c0.7-1.4,0.5-3.1-0.4-4.4c-0.4-0.5-0.6-1.1-0.7-1.8c0.2-0.5,0.6-1,1-1.3
	c0.5-0.5,1-1,1.4-1.6c1.2-2,1.4-4.7-0.5-5.8l-1.3-0.8l-1.5,2.6l1.2,0.7c0,0.6-0.1,1.2-0.5,1.7c-0.3,0.4-0.6,0.7-0.9,1
	c-1,0.8-1.6,2-1.9,3.3v0.2c0.1,1.3,0.5,2.5,1.3,3.5c0.3,0.4,0.3,0.9,0.1,1.3L67,38.5z"/>
<path class="st0" d="M70.7,59.3c0.2-0.8,0.6-1.5,1-2.2c0.9-1.2,2.4-1.8,3.9-1.5l1.5,0.3l0.5-3l-1.5-0.3c-2.6-0.5-5.2,0.6-6.8,2.7
	l-0.1,0.1c-0.6,0.9-1.1,1.9-1.4,3l-0.5,1.4l2.8,0.9L70.7,59.3z"/>
<path class="st0" d="M86,85.7c-0.3,0.5-0.7,1-1.3,1.2c-0.4,0.1-0.8,0.2-1.1,0.3c-0.6,0.1-1.2,0.3-1.8,0.5l-1.4,0.6l1.2,2.8l1.4-0.6
	c0.4-0.2,0.8-0.3,1.2-0.4c0.5-0.1,1.1-0.2,1.6-0.4c1.3-0.5,2.3-1.5,2.9-2.7l0.6-1.4l-2.7-1.2L86,85.7z"/>
<path class="st0" d="M74.4,85l-2.7-1.2L71,85.2c-0.6,1.7-0.7,3.5-0.2,5.2c0.1,0.5,0.2,0.9,0.2,1.4v0.1c0.2,0.8,0.2,1.6,0.2,2.4
	c0,0.4-0.2,0.7-0.6,0.8l-1.4,0.6l1.2,2.7l1.4-0.6c1.4-0.6,2.3-2,2.3-3.5c0-1-0.1-2-0.2-3c-0.1-0.5-0.1-1-0.2-1.5
	c-0.3-1.1-0.3-2.3,0-3.4L74.4,85z"/>
</svg>
