<?xml version="1.0" encoding="utf-8"?>
<!-- Generator: Adobe Illustrator 21.0.0, SVG Export Plug-In . SVG Version: 6.00 Build 0)  -->
<svg version="1.1" id="Layer_1" xmlns="http://www.w3.org/2000/svg" xmlns:xlink="http://www.w3.org/1999/xlink" x="0px" y="0px"
	 viewBox="0 0 120 120" style="enable-background:new 0 0 120 120;" xml:space="preserve">
<style type="text/css">
	.st0{fill:#1D0E4C;}
</style>
<path class="st0" d="M100.9,63.9c-0.5-7.9-4.6-10.8-8.6-13.6c-2.2-1.4-4.2-3.1-5.9-5.1c-1.8-2.3-3-5.4-4.1-8.5
	c-1.8-4.9-3.6-10-8.5-12.2l-2.4-1.1c-6.2-2.9-12.1-5.6-19.3-4l-0.6,0.1c-15.7,3.5-26,8.9-30.5,15.9c-3,4.6-1.9,10.3-0.8,15.8
	c0.8,4.1,1.6,8,0.5,10.8l0,0c-4.6,11.8,3.9,20.3,12,28.5c5.9,5.8,19.5,10.5,29.7,10.5c1.2,0,2.4-0.1,3.6-0.2
	c0.6-0.1,1.4-0.1,2.3-0.2C77.8,99.8,102.9,97.8,100.9,63.9z M68,97.6c-1,0.1-1.8,0.2-2.5,0.2c-9.3,1.3-24.8-3.5-30.8-9.4
	c-7.8-7.8-15.2-15.2-11.3-25.2c1.4-3.6,0.6-7.9-0.3-12.5c-1-5-2-10.1,0.4-13.6c4.1-6.3,13.7-11.2,28.6-14.6l0.6-0.1
	c6.2-1.4,11.4,1,17.4,3.8l2.5,1.1c3.7,1.7,5.2,6,6.9,10.5c1.2,3.2,2.4,6.7,4.5,9.3c1.9,2.2,4.1,4.1,6.5,5.7
	c3.9,2.7,6.9,4.8,7.3,11.3C99.8,95,77.5,96.9,68,97.6z"/>
<path class="st0" d="M55.7,51.4c1.1,1.3,2.6,2.1,4.3,2.3h0.1c2.7,0,4.9-2.1,5.1-4.8v-0.1c-0.1-2.7-2.3-4.9-5.1-5
	c-2.1,0-3.9,1.3-4.8,3.2h-0.1l-0.2,1c0,0.1,0,0.2-0.1,0.3v0.1c0,0.2-0.1,0.4-0.1,0.6l-0.1,1H55C55.1,50.5,55.4,51,55.7,51.4z
	 M57.9,48.8L57.9,48.8v-0.3c0.2-1,1.1-1.7,2.1-1.8c1.1,0.1,2,1,2.1,2.1c-0.1,1.1-0.9,1.9-2,1.9c-0.8-0.1-1.5-0.5-2.1-1.1
	c-0.1-0.1-0.2-0.3-0.2-0.5L57.9,48.8z"/>
<path class="st0" d="M49.9,56.4l0.1,0.1c1.2,0.9,2.5,1.6,3.9,2c2.4,0.9,4.9,1.4,7.5,1.5c2.1,0,4.2-0.5,6.1-1.6
	c2.6-1.7,4.3-4.6,4.6-7.7c0.3-3-0.6-6.1-2.5-8.5c-2.5-3.5-6.5-5.5-10.8-5.4c-3.7,0.3-7,2.4-8.8,5.6c-1.3,2-2.2,4.3-2.6,6.7
	C47,51.8,47.9,54.5,49.9,56.4z M50.4,49.6c0.3-2,1.1-3.8,2.2-5.5V44c1.3-2.4,3.7-4,6.4-4.2c3.3,0,6.4,1.6,8.2,4.2
	c1.4,1.8,2.1,4.1,1.9,6.4c-0.2,2.2-1.4,4.2-3.2,5.4c-2.5,1.6-6.1,1.5-11-0.2c-1-0.3-2-0.8-2.9-1.5C50.7,53,50.2,51.3,50.4,49.6
	L50.4,49.6z"/>
<path class="st0" d="M39.7,59.1c3.8,4.9,8.8,8.7,14.5,11.1c2,0.9,4.3,0.5,5.8-1c1.1-1.3,1.2-3.1,0.2-4.5l-0.4-0.4
	c-1.9-1.5-4.1-2.6-6.5-3.4c-5.2-1.6-8.6-6.7-8.1-12.1l0.1-1.5l-3-0.2l-0.1,1.5c-0.6,6.8,3.6,13.2,10.2,15.2c1.9,0.6,3.7,1.5,5.3,2.7
	c0.2,0.5,0,0.7,0,0.8c-0.7,0.5-1.6,0.6-2.4,0.2c-5.2-2.1-9.7-5.6-13.2-10c-0.7-1.3-1.8-2.3-3.1-3l-1.9,0.4c-1.6,2.1-1.1,6.4,0.4,8.4
	c3.2,4.4,9,8.2,14.3,11.4l1.3,0.8l1.6-2.6l-1.3-0.8c-4.7-2.9-10.5-6.7-13.4-10.6c-0.6-1-0.8-2.1-0.8-3.2c0.2,0.2,0.3,0.4,0.4,0.6
	L39.7,59.1z"/>
<path class="st0" d="M67.3,62.1L65.8,62l-0.1,3l1.5,0.1c1.8,0.1,4.5-0.8,6.9-5.3c0.6-1.1,1.3-2.9,2-4.7c0.4-1,0.9-2.3,1.2-3
	c0.1,0,0.1,0.1,0.1,0.1c0.2,0.7,0.2,1.4-0.1,2v0.1c-0.2,0.8-1.6,3.6-2.8,5.8c-3.5,7-3.8,7.6-2.9,8.6c1,0.9,2.3,1.4,3.6,1.4
	c1,0.1,1.9-0.3,2.7-1c3.1-3.4,5.3-7.6,6.3-12.1l0.3-1.5l-3-0.7l-0.3,1.5c-1,4-2.9,7.7-5.6,10.8c-0.4,0.1-0.8,0.1-1.2,0
	c0.6-1.3,1.8-3.8,2.7-5.5c1.1-2,2.1-4.1,3-6.3c0.5-1.3,0.5-2.7,0.1-4c0-0.1-0.1-0.3-0.2-0.4c-0.8-1.6-2.8-2.3-4.4-1.4l-0.2,0.1
	c-0.5,0.4-0.8,1-2.2,4.3c-0.7,1.6-1.4,3.4-1.9,4.4C70.7,59.8,69.1,62.1,67.3,62.1z"/>
<path class="st0" d="M79.2,78.7c-0.4-0.5-1-0.8-1.6-1c-3.5-1.2-4.9,0-6.6,1.4l-0.8,0.7c-1.2,1.2-2.7,1.9-4.3,2.1
	c-2,0.2-3.9,1.2-5.2,2.8l-0.1,0.1c-0.8,1.2-1.1,2.6-0.7,4c0.3,1.1,1.1,2.1,2.2,2.5l0.2,0.1c1.2,0.3,2.4,0.2,3.6-0.2L73,89
	c1-0.2,2-0.6,2.9-1.2l0.1-0.1c0.6-0.5,1.1-1,1.5-1.6c1-1.5,1.7-3.1,2.1-4.8c0.2-0.8,0.1-1.6-0.2-2.2L79.2,78.7z M76.6,80.7
	c-0.3,1.4-0.8,2.7-1.6,3.8c-0.2,0.3-0.5,0.7-0.8,0.9c-0.6,0.4-1.2,0.6-1.9,0.8L65,88.2l-0.2,0.1c-0.5,0.2-1.1,0.3-1.7,0.1
	c-0.2-0.1-0.3-0.3-0.3-0.5c-0.1-0.5-0.1-0.9,0.2-1.3c0.8-1,2-1.6,3.3-1.7h0.1c2.2-0.3,4.2-1.3,5.7-2.8l0.8-0.7
	c1.4-1.2,1.8-1.5,3.7-0.8L76.6,80.7z"/>
<path class="st0" d="M41.4,72.5c-0.2-0.3-0.5-0.7-0.9-1.2c-2.5-3.6-6.3-9-9.7-7l0,0c-0.9,0.5-1.4,1.4-1.6,2.4
	c-0.2,1.4,0.2,2.8,1.1,3.9c0.7,0.8,1.5,1.5,2.4,2.1c0.5,0.3,0.9,0.6,1.3,1c1.1,1,1.7,2.2,2,3.6c0,0.2,0.1,0.4,0.1,0.6
	c0,1.3,0.6,2.6,1.5,3.6l0.1,0.1c0.6,0.4,1.4,0.7,2.1,0.7c1.2,0,2.4-0.6,3.1-1.6c0.9-1.4,1.1-3.2,0.5-4.8
	C43,74.6,42.3,73.5,41.4,72.5z M40.5,79c-0.2,0.3-0.7,0.4-1,0.2c-0.3-0.5-0.4-1-0.4-1.6c0-0.2-0.1-0.5-0.1-0.7
	c-0.3-2.1-1.4-3.9-2.9-5.3c-0.5-0.5-1.1-0.9-1.6-1.3c-0.7-0.4-1.3-0.9-1.8-1.5c-0.3-0.4-0.5-1-0.4-1.5c0-0.1,0.1-0.3,0.2-0.4
	c0.5-0.1,1.8,0.6,5.7,6.1c0.4,0.6,0.7,1,1,1.4c0.7,0.8,1.2,1.6,1.6,2.6C40.9,77.6,40.8,78.4,40.5,79L40.5,79z"/>
<path class="st0" d="M36,40.7c3-2.6,6.6-4.3,10.4-5l1.5-0.3l-0.5-3l-1.5,0.3c-4.4,0.8-8.5,2.8-11.9,5.7l-1.1,1l2,2.3L36,40.7z"/>
<path class="st0" d="M33.6,50l0.9-1.2l-2.3-1.9l-0.9,1.2c-0.5,0.6-1.2,0.9-2,0.8l-1.5-0.2l-0.4,3l1.5,0.2
	C30.6,52.1,32.4,51.4,33.6,50L33.6,50z"/>
<path class="st0" d="M69.6,39l0.2,1.5l3-0.3l-0.2-1.5c-0.1-1.4-0.5-5.5-3.9-6.3L67.2,32l-0.7,3l1.4,0.3C68.8,35.5,69.4,36.8,69.6,39
	z"/>
<path class="st0" d="M86.2,66.8c-0.4,1.6-1.8,2.6-3.5,2.7h-1.5v3h1.5c3,0,5.5-2,6.3-4.9l0.4-1.4l-2.9-0.8L86.2,66.8z"/>
<rect x="46.7" y="81.5" transform="matrix(0.9956 -9.323949e-02 9.323949e-02 0.9956 -7.6757 4.8581)" class="st0" width="3" height="6.1"/>
</svg>
