<?xml version="1.0" encoding="utf-8"?>
<!-- Generator: Adobe Illustrator 21.0.0, SVG Export Plug-In . SVG Version: 6.00 Build 0)  -->
<svg version="1.1" id="Layer_1" xmlns="http://www.w3.org/2000/svg" xmlns:xlink="http://www.w3.org/1999/xlink" x="0px" y="0px"
	 viewBox="0 0 120 120" style="enable-background:new 0 0 120 120;" xml:space="preserve">
<style type="text/css">
	.st0{fill:#1D0E4C;}
</style>
<path class="st0" d="M25.9,54.2L25.9,54.2c0.2,1.1,0.5,2.1,0.9,3.1c0.1,0.3,0.2,0.7,0.3,1l0,0c0.1,0.3,0.1,0.6,0.1,1
	c0.1,1,0.3,1.9,0.7,2.8c0.4,2.3,1.1,4.5,1.8,6.7c0.1,0.2,0.2,0.5,0.3,0.8c0.4,1.4,1.2,2.7,2.1,3.8l0.8,0.8c1.3,1.3,3,2.9,4.8,3.5
	c5,1.3,10.1,1.9,15.2,1.8c2.5,0,5-0.1,7.6-0.2v-0.1c2.2,0.1,4.5,0.2,6.8,0.2c4.9,0.1,9.8-0.5,14.5-1.8c1.9-0.6,3.5-2.2,4.8-3.5
	l0.7-0.7c1-1.1,1.8-2.4,2.2-3.8c0.1-0.2,0.2-0.5,0.3-0.7c0.7-2.1,1.3-4.3,1.8-6.6c0.4-1,0.7-2,0.8-3c0.1-0.7,0.2-1.4,0.4-2
	c0.4-1,0.7-2,0.8-3.1l0,0c0-0.4,0.1-0.8,0.1-1.1c0-0.1,0-0.2,0-0.4c0.1-1.8,0.2-3.6,0.3-5.3c0.2-3,0-6.1-0.7-9.1
	c-0.1-0.5-0.3-1.1-0.5-1.6l0,0c-1.5-7.6-4.5-17.9-10.7-23.6c-2.1-1.9-5.3-4.5-9-4.7c-2-0.1-3.9,0.4-5.6,1.4
	c-1.9,1.1-4.1,1.6-6.3,1.6h-1c-1.7-0.2-3.4-0.6-5-1.2c-2.9-1.1-5.9-1.7-9-1.8c-3.5,0-6.6,2.4-9.1,4.7c-6.2,5.7-9.2,16-10.8,23.6v0.2
	c-0.2,0.5-0.3,1-0.4,1.5c-0.6,3-0.9,6-0.7,9C25.6,49.6,25.7,51.9,25.9,54.2z M29.3,38.8l0.2-1.2c1-2.6,2.4-5,4.2-7.1
	c8.5-1.4,17-2,25.6-1.8l0,0h1.2l0,0c8.6-0.2,17.2,0.4,25.6,1.8c2.1,2.4,3.7,5.3,4.6,8.5c0.3,1.5,0.5,3,0.6,4.5
	c-3.1-4.5-7.8-7.7-13.2-8.9c-5.1-1.3-11.7-0.5-14,3.4c-1.3,2.1-0.9,4.3-0.5,6.3c0.1,0.6,0.2,1.2,0.3,1.7c0,0.8-0.3,1.5-0.9,2
	c-0.8,0.9-1.9,1.5-3.1,1.6c-1.2-0.1-2.3-0.7-3.1-1.6c-0.5-0.5-0.9-1.2-0.9-2c0.1-0.5,0.2-1.1,0.3-1.7c0.4-1.9,0.8-4.1-0.5-6.2
	c-2.3-3.9-9-4.7-14-3.4c-5.4,1.3-10.1,4.5-13.2,9c0.1-1.5,0.3-3,0.6-4.5C29.2,39,29.2,38.9,29.3,38.8L29.3,38.8z M82.6,27l-1.2-0.2
	c0-0.2,0.1-0.5,0.1-0.8L82.6,27z M78.5,26.5c-2-0.2-4-0.4-6-0.5c0.1-1.8,0.3-3.7,0.5-5.5c1.5,0.6,2.9,1.4,4.2,2.3
	c0.5,0.3,1,0.7,1.6,1.1C78.7,24.7,78.6,25.6,78.5,26.5z M69.5,25.8c-2.6-0.1-5.2-0.1-7.8-0.1c-0.1-2-0.2-4.1-0.2-6.2h1
	c2.1,0,5.3,0.1,7.5,0.3C69.8,21.8,69.6,23.8,69.5,25.8L69.5,25.8z M58.5,19.5c0,2.1,0.1,4.1,0.2,6.2c-2.8-0.1-5.5,0-8.3,0.1
	c-0.1-2-0.3-4-0.5-6c2.2-0.2,5.3-0.2,7.5-0.3H58.5z M46.9,20.5c0.2,1.8,0.3,3.7,0.5,5.5c-2,0.1-4,0.3-6,0.5
	c-0.1-0.9-0.2-1.7-0.3-2.6c0.5-0.4,1.1-0.8,1.6-1.1C44,21.8,45.4,21.1,46.9,20.5L46.9,20.5z M38.3,26.1c0,0.2,0.1,0.5,0.1,0.7
	L37.2,27L38.3,26.1z M91,52.8c0,0.6-0.1,1.3-0.3,1.9c-6.8-2.4-14.3-2.3-21,0.3c-0.6,0.2-1.3,0.5-2,0.8c-2.6,1.1-5.3,2.1-7.9,2.3
	c-2.5-0.1-5.2-1.2-7.9-2.3c-0.7-0.3-1.3-0.5-2-0.8c-6.7-2.6-14.1-2.7-20.9-0.3c-0.6-2.8-0.2-5.7,1.1-8.2c2.2-4.3,6.8-7.7,12.2-9.1
	c4-1,9.3-0.4,10.7,2c0.7,1.1,0.4,2.5,0.1,4.1c-0.1,0.7-0.2,1.3-0.3,2c-0.1,1.6,0.5,3.2,1.6,4.3c1.3,1.4,3.1,2.3,5,2.5l0,0h0.3h0.3
	l0,0c1.9-0.2,3.7-1.1,5-2.5c1.1-1.1,1.7-2.7,1.6-4.3c-0.1-0.7-0.2-1.4-0.3-2c-0.3-1.6-0.6-3,0.1-4.2c1.4-2.5,6.7-3,10.7-2
	c5.4,1.3,10,4.7,12.2,9.1c1,1.8,1.5,3.9,1.4,6L91,52.8z M88.7,61.7c-2.2,1.8-5.5,2.6-9.1,3.3c-6.6,1.5-13.2,2.5-19.9,3
	c-6.5-0.5-13-1.5-19.4-3c-3.5-0.7-6.9-1.5-9-3.3c-0.2-0.2-0.4-0.4-0.5-0.6l-0.3-1.2c-0.2-0.9-0.4-1.6-0.5-2.2l0,0
	c6.2-2.2,12.9-2.1,19,0.3c0.6,0.2,1.3,0.5,1.9,0.8c2.7,1.3,5.6,2.1,8.6,2.5l0,0H60h0.4l0,0c3-0.4,5.9-1.2,8.6-2.5
	c0.7-0.3,1.3-0.5,1.9-0.8c6.1-2.4,12.8-2.5,19-0.3c-0.1,0.6-0.3,1.4-0.5,2.2l-0.3,1.4C89,61.5,88.8,61.6,88.7,61.7z M87.4,67.7
	c-0.1,0.2-0.2,0.5-0.3,0.8c-0.3,1-0.8,1.9-1.4,2.7c-0.3,0.2-0.5,0.5-0.8,0.8c-1,1-2.4,2.4-3.6,2.7c-6.9,2.1-14.3,1.8-20.8,1.5v0.1
	c-7.8,0.3-15.3,0.4-21.7-1.5c-1.2-0.3-2.5-1.7-3.6-2.7c-0.3-0.3-0.6-0.6-0.8-0.8c-0.6-0.8-1.1-1.7-1.4-2.6c-0.1-0.3-0.2-0.7-0.4-0.9
	c-0.3-0.7-0.5-1.4-0.7-2.1c2.5,1.1,5.1,1.9,7.8,2.3c6.6,1.5,13.3,2.6,20.1,3.1v-0.2v0.2c6.9-0.5,13.7-1.6,20.5-3.1
	c2.7-0.5,5.3-1.2,7.8-2.3C87.8,66.3,87.6,67,87.4,67.7L87.4,67.7z M39.5,15.3c2-1.8,4.5-3.9,7.1-3.9c2.7,0.1,5.4,0.7,8,1.7
	c1.9,0.7,3.9,1.2,6,1.3H62l0,0c2.5-0.1,4.9-0.7,7.1-1.9c1.3-0.8,2.7-1.1,4.2-1.1c3,0.1,6.1,2.9,7.1,3.9c3.3,3.1,5.7,7.8,7.3,12.4
	l0,0c-2.6-2.9-5.5-5.4-8.8-7.5c-1.8-1.3-3.8-2.3-5.9-3c-1.8-0.5-5.8-0.6-10.4-0.7c-1.1,0-2,0-2.6,0h0c-0.6,0-1.5,0-2.6,0
	c-4.6,0.1-8.6,0.2-10.5,0.7c-2.1,0.7-4.1,1.7-5.8,3c-3.2,2.1-6.2,4.6-8.8,7.5l0,0C33.8,23,36.2,18.3,39.5,15.3z"/>
<path class="st0" d="M105.3,93.1c-2.5-6.7-5.6-17.1-4.8-19.4l-2.8-0.9c-1.2,3.6,2.4,14.3,4.1,19.3C96.3,91.8,91,90.6,86,88.3
	l-1.7-0.8l-3.2,16.8c-6.1-3.7-11.8-8-17-12.9l-1.2-1.1l-1,1.3c-4,5.1-8.5,9.9-13.4,14.2l-2.6-19.9l-1.8,0.8
	c-8.1,3.6-16.5,6.1-25.2,7.6c2.6-6.3,4.7-12.8,6.3-19.4l-2.9-0.7C20.5,81.6,18,88.7,15,95.6L14,98.1l2.7-0.4
	c9.2-1.3,18.2-3.8,26.8-7.5l2.8,21.3l2.1-1.7c5.5-4.5,10.5-9.6,14.9-15.1c5.6,5,11.7,9.5,18.1,13.3l1.8,1.1l3.3-17.3
	c5.5,2.2,11.4,3.4,17.3,3.4h2.2L105.3,93.1z"/>
</svg>
