<?xml version="1.0" encoding="utf-8"?>
<!-- Generator: Adobe Illustrator 21.0.0, SVG Export Plug-In . SVG Version: 6.00 Build 0)  -->
<svg version="1.1" id="Layer_1" xmlns="http://www.w3.org/2000/svg" xmlns:xlink="http://www.w3.org/1999/xlink" x="0px" y="0px"
	 viewBox="0 0 120 120" style="enable-background:new 0 0 120 120;" xml:space="preserve">
<style type="text/css">
	.st0{fill:#1D0E4C;}
</style>
<path class="st0" d="M87.2,53.1l-1.3-4.2l-0.1-0.3c-2.7-5.1-9.4-7.8-13.8-7.1c-0.8-0.3-1.9-0.7-3.1-1.2c-3.3-1.3-7-2.8-9.8-2.4
	l0.1-8.8c0.1-5,0.1-9.9,0.2-15.8c0.1-1.4-0.2-2.8-1-4l-0.1-0.1c-0.8-0.9-1.9-1.4-3.1-1.5C53.6,7.6,52.1,8,50.9,9l-0.4,0.3
	c-0.8,0.6-1.6,1.4-2.3,2.1c-1.2-1.1-2.8-1.6-4.4-1.5c-2.5,0.3-4.6,1.8-5.8,4c-0.9,1.8-1.4,3.8-1.5,5.8c-1.7,14.7-1.8,28.5-1.9,43.2
	c0,2.3,0,4.7-0.1,7c-3.2,4.2-4.3,12.2-3.6,16.3c0.7,3.7,1.7,7.4,3,10.9c1.1,3,2,6.1,2.7,9.3c0.3,1.9,0.4,3.8,0.4,5.7l3,0.1
	c0.1-2.1-0.1-4.3-0.4-6.3c-0.7-3.3-1.6-6.5-2.8-9.7c-1.2-3.4-2.2-6.9-2.9-10.5c-0.6-3.4,0.4-10.7,3.2-14.2
	c4.4-2.3,10.5-5.5,14.7-7.6h0.1v-0.1c2.2-1.1,3.8-1.9,4.3-2c1.8-0.5,3.6-0.7,5.5-0.7l7.7-0.3h0.1c1.2-0.1,2.4,0,3.5,0.4
	c0.6,0.2,1.1,0.8,1.1,1.5c-0.2,0.6-1.3,1.2-1.7,1.5c-3.1,1.7-6.4,2.9-9.8,3.5c-1.3,0.1-2.5,0.5-3.6,1l-0.1,0.1
	c-0.6,0.3-0.9,0.9-1.9,2.6c-1.5,2.6-4.1,6.8-7.6,10l2,2.2c0.4-0.3,0.7-0.7,1.1-1c0,3.1,0,5.6,0.2,9.3l3-0.1c-0.2-5-0.3-7.7-0.1-12.8
	c1.4-2,2.8-4,4-6.1c0.3-0.6,0.7-1.2,0.9-1.5c0.2-0.1,0.4-0.1,0.7-0.2c0.2,0.3,0.4,0.7,0.4,1.1v0.2c1.4,5.7,3.7,11.1,6.7,16.1
	l2.6-1.6c-2.9-4.7-5-9.8-6.3-15.2c-0.1-0.4-0.2-0.8-0.3-1.2c3.4-0.7,6.8-2,9.8-3.7c1.3-0.7,2.8-1.8,3.2-3.6v-0.2
	c0.1-1.2-0.3-2.3-1-3.2c1.6,0.8,3.3,1.3,5,1.5h0.2l-0.1-3c-0.7,0.1-2.7-0.7-4.1-1.3c-1.3-0.6-2.6-1-3.9-1.4c0.7-1.7,1.9-3.2,3.5-4.2
	l-1.5-2.6c-3.1,2.1-5.2,5.4-5.7,9.1h-0.2L62,58.3c0.3-2,0.8-4,1.4-6c0.6-2.1,1.6-4.7,3.6-6.1c1.6-0.9,3.3-1.5,5.2-1.7
	c3.4-0.6,8.8,1.6,10.9,5.4l1.2,4c2.2,9.4,2.6,12.2,1.3,21.2c-0.7,5.1-2.6,17-3.8,21.3c-0.8,3.1-2.2,6.1-4.1,8.7
	c-1.5,2.3-2.8,4.3-2.8,7.1h3c0-1.9,1-3.4,2.3-5.5c2-2.9,3.6-6.1,4.5-9.6c1.2-4.4,3.1-16.5,3.8-21.6C89.9,66.1,89.5,62.9,87.2,53.1z
	 M38.7,27.9c1.1,1.9,3.1,3.1,5.3,3.2c0.4,0,0.7,0,1.1-0.1c-0.1,1.5-0.1,3-0.2,4.6c-0.1,6.2-0.5,12.4-1.3,18.5
	c-1.3,0.2-2.7,0.4-4,0.7l0.7,2.9c3.3-0.7,6.7-1.1,10.1-1l-1.3,5.3c-4,2-8.9,4.6-11.7,6.1c0-1.7,0-3.3,0-5
	C37.6,51.1,37.7,39.7,38.7,27.9z M46.9,19c0.9,0,1.8-0.2,2.6-0.6c0.5-0.3,0.9-0.7,1.3-1.1c0.1-0.2,0.3-0.3,0.5-0.5
	c0.1,0,0.1,0,0.2,0c1.2,0.2,2.2,0.9,2.8,1.9c0.8,1.3,0.7,2.7,0.1,3.2c-0.2,0.1-0.4,0.3-0.6,0.4c-0.6,0.3-1.1,0.7-1.6,1.2
	c-0.5,0.6-0.8,1.4-1,2.2c-0.1,0.4-0.2,0.8-0.4,1.1l0,0c-0.4,0.6-2.2,0.8-3.5,0.9c-0.9,0.1-1.8,0.2-2.6,0.4c-1.4,0.4-3.3-0.6-4-3
	c-0.4-1.4-0.1-2.1,1.6-3.2c0.6-0.4,1.1-0.8,1.6-1.2c0.5-0.5,1.1-0.9,1.7-1.2C45.9,19.1,46.4,19,46.9,19L46.9,19z M52.9,46.5
	l-1.7,7.1c-1.5,0-2.9,0-4.4,0.1c0.7-6,1.1-12,1.2-18.1c0.1-1.7,0.1-3.4,0.2-5.1c1.9-0.2,3.9-0.6,5-2c0.4-0.6,0.7-1.3,0.9-2
	c0.1-0.4,0.2-0.8,0.4-1.1c0.2-0.2,0.4-0.3,0.7-0.5c0.4-0.2,0.7-0.4,1-0.7l0,0c0,1.6,0,3.3,0,4.9L56,39.5
	C54.1,41.4,53.4,44.2,52.9,46.5L52.9,46.5z M52.4,11.6l0.4-0.4c0.6-0.5,1.4-0.7,2.1-0.6c0.4,0,0.7,0.2,1,0.4c0.4,0.6,0.5,1.3,0.4,2
	v0.2c0,1.1,0,2.2,0,3.3c-1.6-2-4.3-3.4-6.3-2.4C50.7,13.2,51.5,12.3,52.4,11.6z M40.7,15.4c0.7-1.3,1.9-2.2,3.4-2.4
	c0.8,0,1.5,0.2,2.1,0.7c0.2,0.2,0.4,0.5,0.5,0.8c-0.1,0.5-0.2,1-0.3,1.6c-0.8,0-1.7,0.3-2.4,0.6c-0.7,0.5-1.4,1-2.1,1.5
	c-0.4,0.4-0.9,0.7-1.3,1c-0.3,0.2-0.7,0.5-1,0.8C39.6,18.4,40,16.8,40.7,15.4z M65.4,43.7L65.4,43.7c-2.9,2-4.1,5.2-4.9,7.8
	c-0.7,2.3-1.2,4.6-1.6,7c-1.2,0.1-2.4,0.3-3.6,0.7c-0.9,0.3-1.8,0.7-2.6,1.2l0.9-3.8c0.2-0.3,0.3-0.7,0.3-1.1l1.9-8.1
	c0.5-2.3,1.1-4.7,2.8-6c1.3-1.1,5.5,0.4,8.5,1.6C66.5,43.1,65.9,43.4,65.4,43.7z"/>
</svg>
