<?xml version="1.0" encoding="utf-8"?>
<!-- Generator: Adobe Illustrator 21.0.0, SVG Export Plug-In . SVG Version: 6.00 Build 0)  -->
<svg version="1.1" id="Layer_1" xmlns="http://www.w3.org/2000/svg" xmlns:xlink="http://www.w3.org/1999/xlink" x="0px" y="0px"
	 viewBox="0 0 120 120" style="enable-background:new 0 0 120 120;" xml:space="preserve">
<style type="text/css">
	.st0{fill:#1D0E4C;}
</style>
<title>dizziness</title>
<path class="st0" d="M88.4,25.1c-5.2-3-24.4-7.8-37.8-3.3C35.1,27,23.5,46.4,25.8,63.1c2.3,16.6,17.8,30.3,34.5,30.6
	C76.4,94.1,91.8,81.6,96,64.6c2.4-9.6-4.4-18.5-7.2-21.1c-6.1-5.7-13-9.5-19.9-10.9c-8.1-1.6-16.4,0.2-22.2,4.7
	c-8.7,6.8-11.6,19.9-6.6,29.9C45,77.2,56.6,83,67.6,81.2c3.4-0.5,6.7-1.9,9.4-4.1c3.6-3.1,8-6.9,8-17.7c-0.1-4.4-2.2-8.6-5.7-11.4
	c-4.5-3.8-10.3-5.4-16.1-4.6c-7.4,1.5-12.3,8.4-11.4,15.9v0.1C53.2,66.9,60,72,67.4,71.2c1.9-0.2,3.6-1,5-2.2
	c2.3-2.2,2.9-6,1.7-10.2c-1.1-3.7-3.3-6-6.1-6.4l-0.4,3c2.2,0.3,3.3,3.3,3.6,4.3c0.3,1.2,1.3,5.1-0.8,7.1c-0.9,0.8-2.1,1.3-3.3,1.4
	c-5.9,0.6-11.3-3.4-12.4-9.2c-0.7-5.9,3.2-11.3,9-12.5c4.9-0.7,9.9,0.7,13.6,3.9c2.8,2.2,4.5,5.5,4.6,9.1c0,9.4-3.5,12.4-6.9,15.4
	c-2.2,1.8-5,3-7.8,3.4C57.5,79.8,47,74.6,42.8,66c-4.3-8.8-1.8-20.3,5.8-26.3c5.2-4,12.6-5.6,19.8-4.2c6.4,1.3,12.8,4.8,18.5,10.1
	c2.3,2.1,8.3,10.1,6.3,18.2c-3.9,15.6-17.9,27.2-32.7,26.9c-15.3-0.3-29.5-12.9-31.6-28.1c-2.2-15.4,8.5-33.3,22.8-38.1
	c12.3-4.2,30.6,0.3,35.3,3c13.1,7.6,20.5,23,17.6,36.6c-6.7,31.1-26.5,37.5-32.4,38.7c-19.6,4-31.9-2.9-44.4-14.7
	c-10.6-9.8-15.2-25.8-11.9-40.8c3-13.4,14.5-25.6,29.9-31.9l-1.1-2.8c-16.3,6.6-28.5,19.6-31.7,34c-3.6,15.9,1.4,33,12.8,43.6
	c12.1,11.4,23.1,16.6,35.8,16.6c3.8,0,7.6-0.4,11.2-1.2c9.7-2,17.8-7.6,24.3-16.6c5-7.4,8.6-15.7,10.5-24.4
	C110.7,50.1,102.7,33.4,88.4,25.1z"/>
</svg>
