<svg id="Layer_1" data-name="Layer 1" xmlns="http://www.w3.org/2000/svg" viewBox="0 0 200 25.87"><title>test3</title><path d="M19.72,35.37a9,9,0,0,1-2.42,6.53,9.47,9.47,0,0,1-7.18,2.87,9.82,9.82,0,0,1-7.18-2.94A10,10,0,0,1,0,34.57,10,10,0,0,1,10.12,24.38a10.52,10.52,0,0,1,4,.76,8.61,8.61,0,0,1,3.14,2.14l0,.07-1.9,1.9-.07-.07a5.91,5.91,0,0,0-2.28-1.66,7.29,7.29,0,0,0-3-.59A7.14,7.14,0,0,0,4.8,29.12a7.53,7.53,0,0,0-2.14,5.46A7.47,7.47,0,0,0,4.8,40a7.14,7.14,0,0,0,5.28,2.18,7.34,7.34,0,0,0,4.77-1.59A6.31,6.31,0,0,0,17,36.3h-7V33.81h9.53v.07A7.43,7.43,0,0,1,19.72,35.37Z" transform="translate(0 -24.38)" fill="red"/><path d="M31.92,33.47a6,6,0,0,0-4.53-1.87,6.09,6.09,0,0,0-4.56,1.87,6.64,6.64,0,0,0-1.8,4.7,6.43,6.43,0,0,0,1.8,4.7,6,6,0,0,0,4.56,1.9,6,6,0,0,0,4.53-1.87,6.41,6.41,0,0,0,1.83-4.7A6.54,6.54,0,0,0,31.92,33.47Zm-4.53,9a3.61,3.61,0,0,1-2.76-1.21,4.29,4.29,0,0,1-1.11-3.11,4.44,4.44,0,0,1,1.11-3.11,3.76,3.76,0,0,1,5.53,0,4.29,4.29,0,0,1,1.11,3.11,4.38,4.38,0,0,1-1.11,3.11A3.5,3.5,0,0,1,27.39,42.48Z" transform="translate(0 -24.38)" fill="red"/><path d="M46.46,33.47a6,6,0,0,0-4.53-1.87,6.09,6.09,0,0,0-4.56,1.87,6.64,6.64,0,0,0-1.8,4.7,6.43,6.43,0,0,0,1.8,4.7,6.09,6.09,0,0,0,4.56,1.87,6,6,0,0,0,4.53-1.87,6.41,6.41,0,0,0,1.83-4.7A6.82,6.82,0,0,0,46.46,33.47Zm-1.8,7.84a3.72,3.72,0,0,1-2.76,1.21,3.61,3.61,0,0,1-2.76-1.21A4.29,4.29,0,0,1,38,38.2a4.44,4.44,0,0,1,1.11-3.11,3.76,3.76,0,0,1,5.53,0,4.44,4.44,0,0,1,1.11,3.11A4.15,4.15,0,0,1,44.66,41.31Z" transform="translate(0 -24.38)" fill="red"/><path d="M59.79,32v1.66a4.55,4.55,0,0,0-1.73-1.49,5.33,5.33,0,0,0-2.45-.55,5.49,5.49,0,0,0-4.18,1.93,6.77,6.77,0,0,0-1.73,4.66,6.92,6.92,0,0,0,1.73,4.7,5.52,5.52,0,0,0,4.18,1.9,5,5,0,0,0,2.45-.59,4.27,4.27,0,0,0,1.73-1.49v1a4.33,4.33,0,0,1-1,3,4.05,4.05,0,0,1-4.94.48,3.32,3.32,0,0,1-1.24-1.66l0-.07-2.31,1,0,.07a4.57,4.57,0,0,0,.79,1.45,5,5,0,0,0,1.28,1.14A6.08,6.08,0,0,0,54,50a6.88,6.88,0,0,0,1.93.28,6.15,6.15,0,0,0,4.53-1.73,6.38,6.38,0,0,0,1.69-4.66V32.12H59.79ZM53.3,35.09A3.52,3.52,0,0,1,56,33.88a3.47,3.47,0,0,1,2.69,1.21,4.5,4.5,0,0,1,1.11,3.11,4.38,4.38,0,0,1-1.11,3.11A3.39,3.39,0,0,1,56,42.48a3.52,3.52,0,0,1-2.69-1.21,4.88,4.88,0,0,1,0-6.18Z" transform="translate(0 -24.38)" fill="red"/><rect x="64.42" y="0.52" width="2.45" height="19.45" fill="red"/><path d="M78.62,40.34a3.46,3.46,0,0,1-1.9,1.73,3.79,3.79,0,0,1-5-2.11l8.91-3.52-.1-.31a7,7,0,0,0-3.35-4,5.78,5.78,0,0,0-4.73-.07,5.69,5.69,0,0,0-3.39,3.35,6.81,6.81,0,0,0,.14,5,6.58,6.58,0,0,0,3.39,3.73,5.68,5.68,0,0,0,2.49.55,6.92,6.92,0,0,0,5.18-2.52c.14-.17.24-.35.38-.52l0-.07-2-1.31Zm-1.14-4.87L71.16,38a3.61,3.61,0,0,1,.38-2.28,3.39,3.39,0,0,1,1.73-1.52A3.49,3.49,0,0,1,75.82,34,2.88,2.88,0,0,1,77.48,35.47Z" transform="translate(0 -24.38)" fill="red"/><path d="M93.68,44.28H91.4V26.46h2.8l8.67,13.85h.1l-.1-3.42V26.46h2.28V44.28h-2.38L93.71,29.77h-.1l.1,3.42V44.28Z" transform="translate(0 -24.38)" fill="red"/><path d="M114.47,44.66a5.83,5.83,0,0,1-4.42-1.83,6.44,6.44,0,0,1-1.73-4.66A6.48,6.48,0,0,1,110,33.54a6,6,0,0,1,8.64-.1,7,7,0,0,1,1.59,4.91l0,.24h-9.57a3.93,3.93,0,0,0,1.21,2.9A3.83,3.83,0,0,0,118,40.41l2,1a6.15,6.15,0,0,1-2.28,2.42A6.53,6.53,0,0,1,114.47,44.66Zm-3.66-7.94h7a3.09,3.09,0,0,0-1-2.11,3.61,3.61,0,0,0-2.49-.83,3.34,3.34,0,0,0-2.21.79A3.47,3.47,0,0,0,110.81,36.71Z" transform="translate(0 -24.38)" fill="red"/><path d="M140.28,32.09l-3.94,12.19H134l-3-9.36-3,9.36h-2.31l-3.94-12.19h2.38l2.69,9.19h0l3-9.19h2.35l3,9.19h0l2.69-9.19Z" transform="translate(0 -24.38)" fill="red"/><path d="M151.88,40.89a3.28,3.28,0,0,1-1.38,2.69A5.58,5.58,0,0,1,147,44.69a5.46,5.46,0,0,1-3.25-1,5.33,5.33,0,0,1-2-2.52l2-.86A3.63,3.63,0,0,0,145.08,42a3.18,3.18,0,0,0,1.87.62,3.35,3.35,0,0,0,1.83-.48,1.34,1.34,0,0,0,.73-1.11c0-.79-.59-1.35-1.8-1.73l-2.07-.52c-2.38-.59-3.56-1.73-3.56-3.42a3.14,3.14,0,0,1,1.35-2.66,6.27,6.27,0,0,1,6.39-.24,4.24,4.24,0,0,1,1.83,2.07l-2,.83a2.58,2.58,0,0,0-1.14-1.21,3.7,3.7,0,0,0-1.76-.45,2.76,2.76,0,0,0-1.59.45,1.3,1.3,0,0,0-.73,1.11c0,.69.66,1.21,2,1.49l1.83.48C150.67,37.82,151.88,39.06,151.88,40.89Z" transform="translate(0 -24.38)" fill="red"/><path d="M170.67,44.28h-10V26.46H163V42.07h7.7Z" transform="translate(0 -24.38)" fill="red"/><path d="M178.48,31.71a5.68,5.68,0,0,1,4,1.35,4.84,4.84,0,0,1,1.45,3.73v7.5h-2.18V42.59h-.07a4.36,4.36,0,0,1-3.77,2.07,5,5,0,0,1-3.39-1.21,3.82,3.82,0,0,1-1.35-3,3.65,3.65,0,0,1,1.42-3,6,6,0,0,1,3.83-1.11,6.5,6.5,0,0,1,3.35.76v-.52a2.64,2.64,0,0,0-.93-2,3.26,3.26,0,0,0-2.21-.83,3.55,3.55,0,0,0-3,1.62l-2-1.28A5.51,5.51,0,0,1,178.48,31.71Zm-2.94,8.84A1.77,1.77,0,0,0,176.3,42a2.71,2.71,0,0,0,1.76.59,3.63,3.63,0,0,0,2.59-1.07A3.37,3.37,0,0,0,181.8,39a4.75,4.75,0,0,0-3-.83,3.82,3.82,0,0,0-2.31.66A2,2,0,0,0,175.54,40.55Z" transform="translate(0 -24.38)" fill="red"/><path d="M194.2,44.66a5.25,5.25,0,0,1-2.45-.59,4.27,4.27,0,0,1-1.69-1.52h-.1v1.69h-2.18V26.46h2.28v5.63l-.1,1.69h.1a4.52,4.52,0,0,1,1.69-1.52,5.25,5.25,0,0,1,2.45-.59,5.15,5.15,0,0,1,4.08,1.9,7,7,0,0,1,0,9.19A5.2,5.2,0,0,1,194.2,44.66Zm-.38-2.07a3.58,3.58,0,0,0,2.76-1.24,4.43,4.43,0,0,0,1.11-3.14,4.59,4.59,0,0,0-1.11-3.14,3.58,3.58,0,0,0-2.76-1.24,3.65,3.65,0,0,0-2.8,1.24,4.59,4.59,0,0,0-1.11,3.14A4.68,4.68,0,0,0,191,41.38,3.74,3.74,0,0,0,193.82,42.59Z" transform="translate(0 -24.38)" fill="red"/></svg>