<?xml version="1.0" encoding="utf-8"?>
<!-- Generator: Adobe Illustrator 21.0.0, SVG Export Plug-In . SVG Version: 6.00 Build 0)  -->
<svg version="1.1" id="Layer_1" xmlns="http://www.w3.org/2000/svg" xmlns:xlink="http://www.w3.org/1999/xlink" x="0px" y="0px"
	 viewBox="0 0 120 120" style="enable-background:new 0 0 120 120;" xml:space="preserve">
<style type="text/css">
	.st0{fill:#1D0E4C;}
</style>
<path class="st0" d="M99.3,79.2c-1.1-1.6-2.8-2.7-4.8-3.1L94.2,76C91.4,57.2,73.8,44.1,55,46.9C39.9,49.1,28.1,61,25.8,76
	c-4.1,0.6-6.9,4.3-6.4,8.4c0.5,3.7,3.6,6.4,7.3,6.4h0.1c1,3.2,2.4,6.3,4.2,9.2l2.5-1.6c-1.9-2.9-3.3-6.1-4.2-9.5l-0.4-1.4l-1.4,0.3
	c-0.3,0.1-0.6,0.1-0.9,0.1c-2.5,0-4.4-2.1-4.4-4.5c0-2.5,2.1-4.4,4.5-4.4h1.5l0.1-1.3c1.9-17.3,17.5-29.8,34.8-27.9
	c14.7,1.6,26.3,13.2,27.9,27.9l0.2,1.3h1.5c0.3,0,0.6,0,0.9,0.1c2.4,0.5,4,2.8,3.5,5.2c-0.5,2.4-2.7,3.9-5.1,3.5l-1.4-0.3l-0.3,1.4
	c-0.9,3.5-2.3,6.9-4.4,9.9l2.5,1.6c2-2.9,3.5-6.2,4.4-9.6c4.1,0,7.4-3.4,7.4-7.5C100.6,81.8,100.1,80.4,99.3,79.2L99.3,79.2z"/>
<rect x="28.8" y="33.9" transform="matrix(0.8605 -0.5095 0.5095 0.8605 -17.5767 21.4068)" class="st0" width="3" height="17.8"/>
<path class="st0" d="M48.6,42.9c-2.9-7.7-5.8-15.5-8.5-23.2l-2.8,1c2.8,7.8,5.6,15.6,8.5,23.3L48.6,42.9z"/>
<path class="st0" d="M40.9,77.2l-0.8,2.9c4.1,1.2,8.4,1.4,12.6,0.5l-0.6-2.9C48.4,78.4,44.5,78.3,40.9,77.2z"/>
<path class="st0" d="M67.3,77.2l-0.8,2.9c4.1,1.2,8.4,1.3,12.6,0.5l-0.6-2.9C74.8,78.4,70.9,78.3,67.3,77.2z"/>
<rect x="58.1" y="24.8" class="st0" width="3" height="15.3"/>
<rect x="79.9" y="41.3" transform="matrix(0.5093 -0.8606 0.8606 0.5093 6.7619 97.4253)" class="st0" width="17.8" height="3"/>
<path class="st0" d="M81.9,20.6l-2.8-1c-2.7,7.7-5.6,15.5-8.5,23.2l2.8,1.1C76.3,36.2,79.1,28.4,81.9,20.6z"/>
</svg>
