<?xml version="1.0" encoding="utf-8"?>
<!-- Generator: Adobe Illustrator 21.0.0, SVG Export Plug-In . SVG Version: 6.00 Build 0)  -->
<svg version="1.1" id="Layer_1" xmlns="http://www.w3.org/2000/svg" xmlns:xlink="http://www.w3.org/1999/xlink" x="0px" y="0px"
	 viewBox="0 0 120 120" style="enable-background:new 0 0 120 120;" xml:space="preserve">
<style type="text/css">
	.st0{fill:#1D0E4C;}
</style>
<path class="st0" d="M34.2,15.5c3.3-0.8,6.8,0,9.2,2.4l2.5-1.1c-0.1-3.1,0-6.2,0.4-9.3L46.5,6l-3-0.3l-0.1,1.5
	c-0.2,2.2-0.4,4.5-0.4,6.7c-2.9-1.6-6.3-2-9.5-1.2L32,13l0.7,2.9L34.2,15.5z"/>
<path class="st0" d="M96,39.9c0-5.5-2.5-6.8-4.7-6.9c-3.7-0.7-8.5,0.3-13.4,2.3c-0.2-0.3-0.4-0.7-0.6-1v-0.4c0.5-4.2,3.8-7.4,8-7.8
	l1.5-0.1l-0.3-3l-1.4,0.1c-4.8,0.4-8.8,3.7-10.3,8.3c-0.5-0.4-1-0.8-1.5-1.2c1.2-4.4,5.1-9.2,9-9.6l1.5-0.1l-0.3-3l-1.5,0.1
	c-5.2,0.5-9.7,6-11.4,11.1c-0.5-0.2-1-0.4-1.5-0.5c0.5-5,0.7-10.1,0.5-15.2l-0.1-1.5l-3,0.1l0.1,1.5c0.2,4.9,0,9.7-0.5,14.5h-0.1
	c-0.8,0-1.5,0-2.3,0c0.3-5.2-0.1-10.5-1.2-15.6l-0.3-1.5l-2.9,0.6l0.3,1.5c1.1,5,1.4,10.2,1.1,15.4c-1.6,0.3-3.2,0.8-4.8,1.5
	l-0.1-0.2c-1-1.6-5.2-16.2-4.8-21.9l0.1-1.5l-3-0.2l-0.1,1.5c-0.5,6.5,4.1,21.8,5.2,23.6l0.1,0.1c-0.3,0.2-0.6,0.4-0.9,0.6
	c-0.6,0.4-1.2,0.9-1.8,1.4c-0.8-3.4-2.4-8.1-5.6-11c-3.7-3.3-8.8-4.4-12.9-2.7l-1.4,0.6l1.1,2.8l1.4-0.6c3-1.2,6.9-0.4,9.7,2.1
	c3.2,2.9,4.6,8.6,5,11l0.1,0.4c-0.3,0.4-0.6,0.8-0.9,1.2c-1.5,2.4-2.3,5.1-2.2,7.9c-0.9-0.5-1.8-1-2.7-1.4
	c-0.4-3.4-0.6-9.3,0.7-12.3c0.2-0.1,0.3-0.3,0.5-0.5c0.2-0.4,0.4-0.8,0.5-1.2l0.1-0.1h0c0.2-0.8,0.2-1.7-0.2-2.4
	c-0.6-1.5-2.2-2.6-4.7-3.3c-1.7-0.5-4.9-0.6-6.6,0.6l-0.2,0.2h-0.1l-0.1,0.2c-0.4,0.3-0.6,0.8-0.8,1.3c-2.5,4-3.4,8.8-2.6,13.5
	c0.3,2.2,0.8,4.3,1.4,6.4c-1.5,1.6-2.7,3.3-3.8,5.2c-3.8,7-3.4,25.2,2.4,33.4c8.1,11.6,20,23.1,23.4,26.3c2.8,2.5,6.4,3.8,10.2,3.8
	c3.6,0,6.8-1.1,8.4-2.5c3.8-3.3,13.3-20,15-24.3c2.3-5.7,4.6-13,1.8-19.7l-0.1-0.1c-0.2-0.4-0.3-0.7-0.4-1.2c0-0.5,0.2-1,0.4-1.5
	l0.1-0.2c2-6.2-0.4-13-5.9-16.5c2.3-0.4,4.7-0.5,7-0.4h1.5h0.5c0.2,0,0.3,0,0.5,0c0.2,0,0.4,0,0.5,0l0,0C94.9,47.7,96,43.7,96,39.9z
	 M49.9,38.5c1.2-1.7,2.7-3.2,4.4-4.4c2.7-2,5.9-3.2,9.2-3.4h0.1l0,0c0.8-0.1,1.6-0.1,2.3,0c3.9,0.3,7.4,2.5,9.3,5.9
	c-1.8,0.9-3.6,1.9-5.3,3l-0.1-0.1c-3-3.4-8.2-3.8-11.6-0.8c-1.2,1-2,2.3-2.5,3.8c-0.3,1-0.5,2.1-0.5,3.1c-0.1,2.5,0.2,5,0.8,7.5
	c-2,0.8-3.9,1.8-5.7,2.9l-0.4-1.5C48.3,48.5,46.9,43.1,49.9,38.5z M58.2,45.5c0-0.8,0.1-1.6,0.3-2.3c0.9-2.8,3.8-4.3,6.5-3.4
	c0.9,0.3,1.7,0.8,2.3,1.4c-3.5,2.4-6.5,5.4-8.9,8.9C58.2,48.6,58.1,47.1,58.2,45.5z M39.3,42.4c-1.3-0.2-2.7-0.2-4,0.1
	c-0.9,0.2-1.7,0.6-2.5,1.1c-0.4-1.6-0.8-3.2-1-4.8c-0.5-3.1-0.2-6.3,1-9.2c1.1,1,2.4,1.6,3.8,2c1,0.3,2,0.4,3,0.4h0.1
	C39.1,35.4,39,38.9,39.3,42.4z M38.5,26.4c2.2,0.6,2.6,1.3,2.7,1.5c0,0.1,0,0.2,0,0.4l-0.4,0.6c-1.2,0.2-2.3,0.2-3.5-0.1
	c-1.8-0.5-2.9-1.4-3.1-2l0.1-0.2C35.8,26.1,37.2,26,38.5,26.4L38.5,26.4z M36,45.4c2.3-0.6,5.1,0.2,8.5,2.4l1,0.6
	c0.4,2.2,0.9,4.4,1.5,6.6l0.2,0.8c-3.4-1.1-8.4-2.6-12.5-0.4c-3.2,1.6-5.9,4.2-7.7,7.3c0.2-4.4,0.9-8.3,2.1-10.5
	C31.3,48.3,33.5,46.1,36,45.4z M83.1,86.4c-1.8,4.4-11.1,20.5-14.2,23.2c-1.8,1.5-9.6,3.5-14.6-1.2c-3.4-3.2-15.1-14.5-23-25.9
	c-2-2.8-3.2-6.9-3.9-11.2h0.1l0.2-1.5c0.6-5.1,3.7-9.5,8.3-11.7c1.9-1,4.4-0.9,6.6-0.4c-1.2,0.9-2,2.2-2.2,3.7c0,1,0.2,1.9,0.6,2.8
	c0.2,0.4,0.3,0.8,0.4,1.2c0.1,0.9-0.4,1.7-1.2,2.1l-1.4,0.6l1.2,2.8l1.4-0.6c2-0.9,3.3-3,3-5.2c-0.1-0.7-0.3-1.3-0.6-1.9
	c-0.2-0.5-0.4-1-0.4-1.5c0-0.2,0.1-0.3,0.1-0.5c0.5,2.1,1.9,3.9,3.9,4.8c-0.5,0.8-0.8,1.6-0.8,2.6c-0.2,1.6-0.2,3.3,0,4.9
	c0.1,0.6,0.1,1.2,0.1,1.9c-0.2,1.1-1.3,2.1-2.5,3l-1.2,0.9l1.9,2.4l1.2-0.9c1.2-1,3.2-2.6,3.5-5c0.1-0.9,0.1-1.8-0.1-2.7
	c-0.2-1.4-0.2-2.8,0-4.1v-0.1c0-0.5,0.2-1,0.5-1.4l0.5-0.6c0.5,0,1.1,0.2,1.5,0.5c0.7,0.6,0.6,2.1,0.5,3.5l-0.1,1.5l3,0.3l0.1-1.5
	c0.2-1.5,0.5-4.4-1.5-6.1c-1-0.8-2.2-1.2-3.5-1.3c-0.4,0-0.8-0.1-1.2-0.2c-1.6-0.5-2.7-1.8-3-3.4l-0.2-1.3l0.2-0.1
	c1,0.4,2.1,0.6,3.1,0.7l0.8-0.3c0.1-0.1,8.7-5.8,16-5.8h0.8v0.1c-1.2,3.1-0.3,7.6,0.5,11.9c0.6,3.3,1.3,7,0.6,8.6
	c-0.7,1.4-2,2.5-3.5,2.7c-0.4,0.1-0.8,0.1-1.2,0.1c-1.2,0-2.5,0.3-3.5,0.9c-1.2,0.8-2,2.1-2.3,3.5c-0.2,0.5-0.3,1-0.6,1.5
	c-0.2,0-0.5,0-0.8-0.1c-1.3-0.2-3.4-0.4-4.5,1.4c-0.4,0.8-0.4,1.7-0.2,2.5c0.2,1.5,0.3,2.1-1.7,2.6l-1.5,0.4l0.8,2.9l1.5-0.4
	c4.5-1.2,4.1-4.5,3.9-5.9c0-0.2-0.1-0.5-0.1-0.6c0.5,0,1,0,1.5,0.1c1.1,0.1,2.8,0.3,3.6-1.2c0.4-0.7,0.7-1.5,0.9-2.2
	c0.4-1.1,0.6-1.6,1.1-1.9c0.7-0.3,1.4-0.5,2.1-0.4c0.5,0,1-0.1,1.6-0.2c0.5-0.1,1-0.2,1.5-0.4c0,0,0,0.1,0,0.1
	c0,0.5-0.2,1.6-2.4,4.3l-3.1,3.7c-1.4,1.5-2.5,3.2-3.5,5c-1.1,2.1-1.3,4.5-0.6,6.7c0.2,0.6,0.5,1.3,0.9,1.9c0.2,0.4,0.5,0.9,0.6,1.3
	l0.1,0.1c0.2,0.5,0.2,1.2-0.2,1.6l-0.9,1.2l2.3,1.9l0.9-1.2c1.1-1.3,1.3-3.2,0.6-4.8c-0.2-0.6-0.5-1.1-0.8-1.7
	c-0.2-0.4-0.5-0.8-0.6-1.2c-0.4-1.5-0.3-3.1,0.4-4.4c0.8-1.6,1.9-3.1,3.1-4.4l0.9-1.1c0.1,0.4,0.2,0.7,0.2,1.1
	c-0.1,1.6,0.3,3.2,1,4.6l0.1,0.1c0.7,1,1.9,1.7,3.1,1.8H69c0.9,0,1.8-0.4,2.4-1.1l1-1.1l-2.3-1.9l-1,1.1c-0.3,0-0.7-0.1-0.9-0.4
	c-0.5-0.9-0.7-1.9-0.6-2.9c0-1.1-0.2-2.1-0.6-3.1l-0.4-0.8l0.1-0.1c1.5-1.8,3.3-4.2,3.1-6.5c-0.1-0.5-0.2-1-0.5-1.4
	c0.7-0.7,1.3-1.5,1.7-2.4c0.9-2,0.6-4.9,0-8.2c1-0.1,1.9,0.3,2.6,1c0.4,0.7,0.3,1.9,0.1,3L73,75.4c-0.3,1.4-0.4,2.9-0.4,4.3
	c0.1,1.7,0.8,3.3,2,4.5c1.5,1.3,3.6,1.6,5.3,0.7l1.3-0.7L80,81.6l-1.3,0.7c-0.6,0.3-1.4,0.2-1.9-0.2c-0.7-0.7-1.1-1.5-1.1-2.5
	c0-1.2,0.1-2.4,0.3-3.6l0.7-4.3c0.2-1.3,0.6-3.4-0.5-5.2c-1.3-2.1-4-2.4-5.7-2.4c-0.7-3.5-1.3-7.4-0.5-9.5l0.4-0.9
	c5.6,0.8,10.1,3.8,13.5,12.5l0.4,1.1c0.1,0.6,0.3,1.2,0.6,1.8C87.3,74.8,85.2,81.3,83.1,86.4L83.1,86.4z M85.3,62
	c-2.2-4.5-5.1-7.6-8.7-9.5c0.6-0.9,1.3-1.7,2.2-2.4l0.9,0.5C83.6,52.9,85.8,57.4,85.3,62L85.3,62z M80,45.9
	c-2.5,1.1-4.7,2.9-6.1,5.2l-0.2,0.3c-2.3-0.7-4.8-1-7.2-1c-1.7,0-3.4,0.2-5,0.7c5.2-7.2,17.3-14.3,25.5-15.2
	c-0.7,1.5-0.9,3.2-0.7,4.8c0.1,1.5,0.5,3,1,4.4C84.2,45,81.6,45.1,80,45.9z M91.4,45.1h-0.4c-0.9-0.3-1.3-2.7-1.6-4.7
	c-0.3-1.4,0.1-2.8,0.8-3.9c0.2-0.2,0.5-0.4,0.8-0.5h0.1c0.6,0,1.9,0,1.9,3.9C93,42.2,92.4,44.8,91.4,45.1z"/>
</svg>
