<?xml version="1.0" encoding="utf-8"?>
<!-- Generator: Adobe Illustrator 21.0.0, SVG Export Plug-In . SVG Version: 6.00 Build 0)  -->
<svg version="1.1" id="Layer_1" xmlns="http://www.w3.org/2000/svg" xmlns:xlink="http://www.w3.org/1999/xlink" x="0px" y="0px"
	 viewBox="0 0 120 120" style="enable-background:new 0 0 120 120;" xml:space="preserve">
<style type="text/css">
	.st0{fill:#1D0E4C;}
</style>
<path class="st0" d="M103,44.9c1.5-0.3,2.7-1.5,3-3c0.5-1.7,0.1-3.5-1.2-4.7c-1-0.9-2.4-1.1-3.6-0.6v-0.9l-0.7,1.2
	c-0.2,0.1-0.5,0.3-0.7,0.5l-8.4-14.7c1-0.5,1.8-1.5,2.1-2.6c0.5-1.7,0.1-3.5-1.2-4.7c-1.1-0.9-2.6-1.1-3.8-0.6
	c-1.8,0.7-2.9,2.4-2.9,4.3c0,0.1,0,0.1,0,0.2H68.9c0.2-1.5-0.3-3-1.3-4c-1.1-0.9-2.6-1.1-3.8-0.6c-1.7,0.7-2.9,2.4-2.9,4.3
	c0,0.3,0,0.5,0.1,0.8c0.2,1.1,0.8,2.1,1.8,2.7l-7.4,11.7c-0.6,0-1.1,0.1-1.7,0.3c-1.5,0.6-2.6,2-2.9,3.5H33.9c0-1.3-0.4-2.5-1.4-3.4
	c-1.1-0.9-2.6-1.1-3.8-0.5c-1.7,0.7-2.9,2.4-2.9,4.3c0,0.3,0,0.5,0.1,0.8c0.2,1.1,0.8,2,1.7,2.6L20,55.1c-1-0.6-2.3-0.6-3.3-0.1
	c-1.7,0.7-2.9,2.4-2.9,4.3c0,2.2,1.8,4,4,4c0.6,0,1.2-0.1,1.7-0.4l8.4,14.5c-1.3,0.9-2.1,2.3-2.1,3.9c0,0.3,0,0.6,0.1,0.9
	c0.5,2.2,2.6,3.5,4.8,3c1.5-0.3,2.6-1.5,3-2.9c0.1-0.5,0.2-1,0.2-1.5h14.8c0,0.2,0,0.3,0,0.5c0,0.3,0,0.6,0.1,0.9
	c0.5,2.2,2.6,3.5,4.8,3c0.5-0.1,1-0.3,1.4-0.6l7.3,13.2c-1.2,0.9-1.9,2.3-1.9,3.7c0,0.3,0,0.6,0.1,0.9c0.5,2.2,2.6,3.5,4.8,3
	c1.5-0.3,2.6-1.5,3-2.9c0.1-0.4,0.2-0.8,0.2-1.2h16.4c0,0.1,0,0.1,0,0.2c0,0.3,0,0.6,0.1,0.9c0.5,2.2,2.6,3.5,4.8,3
	c1.5-0.3,2.6-1.5,3-2.9c0.5-1.6,0.1-3.3-0.9-4.5c-0.2-0.2-0.4-0.4-0.6-0.5l8-13.8c0.2,0.2,0.4,0.3,0.6,0.5c1.9,1.2,4.3,0.7,5.5-1.2
	c0.2-0.4,0.4-0.8,0.5-1.3c0.5-1.7,0.1-3.5-1.2-4.7c-1-0.9-2.5-1.1-3.8-0.6l0,0c-0.4,0.2-0.8,0.4-1.2,0.7l-7.5-13
	c0.6-0.5,1-1.2,1.1-1.9c0.4-1.3,0.2-2.7-0.5-3.9c-0.2-0.2-0.3-0.5-0.5-0.7l7.8-13.6C100.7,44.8,101.9,45.1,103,44.9z M101.3,40.4
	c0.2-0.4,0.5-0.8,0.9-1c0.5-0.2,0.6-0.1,0.7,0c0.4,0.5,0.5,1.2,0.3,1.8c-0.1,0.5-0.7,0.9-1.2,0.7c-0.3-0.1-0.6-0.3-0.7-0.6
	L101.3,40.4z M18.5,59.9c-0.1,0.2-0.4,0.4-0.6,0.5c-0.5,0.1-1-0.3-1.1-0.8c0-0.1,0-0.1,0-0.2c0-0.7,0.4-1.3,1.1-1.5h0.1h0.1h0.1
	c0.3,0,0.5,0.2,0.5,0.5l0.2,1.1L18.5,59.9z M89.7,17.6c0.5-0.2,0.6-0.1,0.7,0c0.4,0.5,0.5,1.1,0.3,1.7c-0.1,0.6-0.7,0.9-1.3,0.8
	L89,20l-0.1-0.2c-0.1-0.2-0.2-0.3-0.2-0.5c0-0.1,0-0.1,0-0.2C88.6,18.5,89,17.9,89.7,17.6z M64.9,17.6c0.1-0.1,0.3-0.1,0.4-0.1
	c0.1,0,0.2,0,0.3,0.1c0.4,0.5,0.5,1.1,0.3,1.7c-0.1,0.2-0.2,0.4-0.3,0.5l-0.3,0.3l-0.4,0.1c-0.5,0.1-0.9-0.2-1-0.7c0,0,0,0,0,0v-0.1
	c0-0.1,0-0.1,0-0.2C63.9,18.5,64.3,17.8,64.9,17.6L64.9,17.6z M54.8,37.4c0.5-0.2,0.6-0.1,0.7,0c0.4,0.5,0.5,1.1,0.3,1.7
	c-0.1,0.5-0.6,0.9-1.1,0.9h-0.1l-0.8-1l0,0C53.8,38.2,54.2,37.6,54.8,37.4z M29.8,37c0.1-0.1,0.3-0.1,0.4-0.1c0.1,0,0.2,0,0.3,0.1
	c0.4,0.5,0.5,1.1,0.3,1.7c0,0.1-0.1,0.2-0.1,0.3l-0.3,0.6h-0.7c-0.5,0-0.9-0.4-0.9-0.8c0-0.1,0-0.1,0-0.2
	C28.8,37.8,29.2,37.2,29.8,37z M30.7,81.5c-0.1,0.5-0.7,0.9-1.2,0.7c-0.4-0.1-0.6-0.4-0.7-0.7c0-0.1,0-0.1,0-0.2
	c0-0.7,0.4-1.3,1.1-1.6c0.1,0,0.2-0.1,0.4-0.1h0.2l0.2,0.3C30.8,80.5,30.8,81,30.7,81.5L30.7,81.5z M31.5,77.8L20.9,59.5l10.5-18.4
	h21.2l10.6,18.3L52.7,77.8L31.5,77.8z M53.5,81.4v0.2c-0.1,0.5-0.7,0.9-1.2,0.7c-0.4-0.1-0.6-0.4-0.7-0.7c0-0.1,0-0.1,0-0.2
	c0-0.4,0.2-0.7,0.4-1l0.8-0.9l0.3,0.3C53.6,80.1,53.7,80.8,53.5,81.4L53.5,81.4z M65.2,101.8c-0.1,0.5-0.7,0.9-1.2,0.7
	c-0.4-0.1-0.6-0.4-0.7-0.7c0-0.1,0-0.1,0-0.2c0-0.7,0.4-1.3,1-1.6l0.2-0.1l0.4-0.1l0.2,0.5C65.3,100.8,65.3,101.3,65.2,101.8
	L65.2,101.8z M89.6,101.8c-0.1,0.5-0.7,0.9-1.2,0.7c-0.4-0.1-0.6-0.4-0.7-0.7c0-0.1,0-0.2,0-0.2c0-0.3,0.1-0.6,0.3-0.9l0.4-0.6
	L89,100c0.2-0.1,0.3,0,0.4,0.1C89.7,100.6,89.8,101.2,89.6,101.8L89.6,101.8z M101.8,79.3c0.5-0.2,0.6-0.1,0.7,0
	c0.4,0.5,0.5,1.1,0.3,1.6V81c-0.1,0.5-0.7,0.9-1.2,0.7c-0.4-0.1-0.6-0.4-0.7-0.7c0-0.1,0-0.1,0-0.2c0-0.1,0-0.2,0.1-0.3L101,80
	l-0.1-0.1C101.2,79.7,101.4,79.4,101.8,79.3L101.8,79.3z M87,98.3H65.8l-9.3-16.7c0.2-1.1-0.1-2.3-0.7-3.2l8.7-15.1l0.3,0.2
	c0.9,0.5,2,0.5,3,0.2c0.9-0.3,1.6-0.9,2.1-1.7h15.1c0,0.1,0,0.1,0,0.2c0.4,1.8,2,3.2,3.9,3.2L97.6,80L87,98.3z M65.6,59.7l0.2-0.5
	c0.2-0.4,0.5-0.7,0.9-0.9c0.4-0.2,0.6,0,0.6,0c0.4,0.5,0.5,1.2,0.3,1.8c-0.1,0.5-0.7,0.8-1.2,0.7c-0.3-0.1-0.5-0.3-0.7-0.6
	L65.6,59.7z M90,61.5c-0.1,0.5-0.7,0.9-1.2,0.7c-0.4-0.1-0.6-0.4-0.7-0.7c0-0.1,0-0.2,0-0.2c0-0.1,0-0.3,0.1-0.4l0.4-1.4l1,0.2
	c0.1,0,0.2,0.1,0.3,0.3C90.2,60.5,90.2,61,90,61.5z M87.7,59h-17c-0.1-1.1-0.5-2.1-1.3-2.9c-1-0.9-2.5-1.1-3.8-0.5l0,0
	c-0.3,0.1-0.6,0.3-0.8,0.5l-7.9-13.6c0.9-0.6,1.6-1.5,1.8-2.5c0.4-1.4,0.1-2.9-0.7-4.2l8.5-13.2l0.1-0.2h21.3l10.6,18.4L87.7,59z"/>
<path class="st0" d="M24.5,61.1c2.2,4.7,4.6,9.3,7.3,13.8l2.6-1.5c-2.6-4.4-5-8.9-7.1-13.5L24.5,61.1z"/>
<path class="st0" d="M59.4,36.4l2.7,1.3c1.9-4,4.6-7.7,8-10.6l-2-2.2C64.5,28.1,61.5,32,59.4,36.4z"/>
<path class="st0" d="M86.6,52.7c2-3.9,4.4-7.5,7.1-10.9l-2.3-1.9c-2.9,3.5-5.4,7.4-7.4,11.4L86.6,52.7z"/>
<path class="st0" d="M81.1,67.3l0.2-3c-4.4-0.3-8.8-0.4-13.2-0.2l0.2,3C72.6,66.9,76.9,66.9,81.1,67.3z"/>
<rect x="67.7" y="93.5" class="st0" width="15.5" height="3"/>
</svg>
