<?xml version="1.0" encoding="utf-8"?>
<!-- Generator: Adobe Illustrator 21.0.0, SVG Export Plug-In . SVG Version: 6.00 Build 0)  -->
<svg version="1.1" id="Layer_1" xmlns="http://www.w3.org/2000/svg" xmlns:xlink="http://www.w3.org/1999/xlink" x="0px" y="0px"
	 viewBox="0 0 120 120" style="enable-background:new 0 0 120 120;" xml:space="preserve">
<style type="text/css">
	.st0{fill:#1D0E4C;}
</style>
<path class="st0" d="M76.8,71.6c-2-1.7-4.7-2.2-6.8-2.5l-9.7-1.6c-0.5,0-1-0.2-1.5-0.4c-0.4-0.3-0.7-0.7-1-1.1
	c-3.1-4.2-5.5-8.9-7.3-13.8c-0.2-2.5,0.1-5.5,0.9-6.2c2.3-2.1,5.7-4.1,7.5-3.9c1.7,0.3,3.2,1.2,4.4,2.5c2,2,3.6,4.4,4.7,7
	c0.2,0.5,0.7,1.7,1.2,3c1.7,4.5,3,8,4.3,9.4c1.3,1.3,3,2.1,4.8,2.2c1.3,0.1,2.7-0.4,3.6-1.3c1.8-1.8,1.8-4.4,1.6-6.7
	c-0.1-0.5-0.1-1.1-0.2-1.7c-0.4-4.2-1-9.9-2.9-13.3L80.2,43c-4.2-5.9-8.9-11.5-13.9-16.7l-2.2,2.1c4.9,5.1,9.5,10.5,13.6,16.3
	c1.6,2.9,2.1,8.2,2.5,12c0.1,0.6,0.1,1.2,0.2,1.7c0.2,1.6,0.2,3.4-0.7,4.2c-0.4,0.4-0.9,0.5-1.5,0.5c-1-0.1-2-0.5-2.7-1.3
	c-0.9-1-2.7-5.8-3.7-8.4c-0.6-1.5-1-2.7-1.2-3.2c-1.3-2.9-3-5.5-5.2-7.8c-1.6-1.8-3.7-3-6.1-3.4c-4.1-0.6-9.4,4.1-10,4.6
	c-2.2,2-2,7.3-1.8,8.9l0.1,0.4c1.8,5.3,4.4,10.3,7.7,14.8c0.5,0.7,1.1,1.4,1.8,1.9l0.2,0.1c0.8,0.4,1.7,0.7,2.6,0.8l9.6,1.6
	c1.9,0.3,4,0.6,5.4,1.8c0.7,0.6,1.1,1.4,1.2,2.3c0,0.5-0.1,0.9-0.4,1.3c-0.8,0.8-2.5,0.7-4,0.6l-19.7-2.4
	c-2.9-4.8-6.3-9.2-10.2-13.3c-1-1-1.9-2.1-2.6-3.4c-0.4-1-0.6-2.1-0.7-3.2l-1.2-8.8l-3,0.4l1.2,8.8c0.1,1.4,0.5,2.8,1,4.1l0.1,0.2
	c0.8,1.6,1.9,3,3.2,4.2c3.8,4.1,7.2,8.6,10.1,13.4l0.4,0.6l15.1,1.9l0,0h0.2c2,0.3,3.9,0.6,5.2,1.7c0.7,0.6,1.1,1.4,1.2,2.3
	c0,0.5-0.1,1-0.4,1.3c-0.8,0.8-2.4,0.7-4,0.5l-19.8-2.4c-2.9-4.8-6.3-9.2-10.1-13.3c-1-1-1.9-2.1-2.6-3.4c-0.4-1-0.6-2.1-0.7-3.2
	l-1.2-8.8l-3,0.4l1.2,8.8c0.1,1.4,0.4,2.7,0.9,4l0.1,0.2c0.8,1.6,1.9,3,3.2,4.2c3.8,4.1,7.1,8.6,10,13.4l0.4,0.6l18,2.2
	c-0.1,0.5-0.4,0.9-0.8,1.2c-1.2,0.6-2.5,0.9-3.8,0.8h-0.1c-2.9,0.1-5.9,0-8.8-0.3c-1.3-0.1-5.8-1.1-8.1-1.6
	c-6-9.1-12.6-19.2-13.1-20.6c-0.4-2.8-0.6-5.7-0.6-8.5c0-1.4,1.2-8,2.3-13.9c1.4-7.8,2.3-13,2.4-14.5l-3-0.1c0,1.4-1.2,8.1-2.3,14
	c-1.4,8-2.3,12.9-2.3,14.4c0,3.1,0.2,6.1,0.6,9.1v0.1c0.4,1.8,9.8,16,13.9,22.1l0.3,0.5l0.6,0.1c0.7,0.2,7.2,1.6,9.1,1.7
	c3,0.3,6.1,0.4,9.1,0.4h0.6c1.7,0,3.3-0.4,4.8-1.2l0.1-0.1c1.2-0.8,2-2,2.3-3.3h0.3c0.7,0.1,1.4,0.2,2.1,0.2
	c1.6,0.1,3.2-0.5,4.4-1.6c0.9-1,1.4-2.2,1.3-3.6c-0.1-1.1-0.4-2.1-1-3c1.5,0,3-0.5,4.1-1.6c0.9-0.9,1.3-2.2,1.3-3.5
	C78.9,74.3,78.1,72.7,76.8,71.6z"/>
<path class="st0" d="M86.2,78.2l-2.8-1.1c-0.5,1.2-1.3,2.3-2.4,3l1.6,2.5C84.2,81.5,85.5,80,86.2,78.2z"/>
<path class="st0" d="M83.2,84.3l1.4,2.6c3.2-1.7,5.8-4.4,7.3-7.7l-2.7-1.3C88,80.6,85.8,82.9,83.2,84.3z"/>
<path class="st0" d="M89.9,66.5c0.1-2-0.4-3.9-1.5-5.6L86,62.6c0.7,1.1,1.1,2.4,1,3.8L89.9,66.5z"/>
<path class="st0" d="M92.8,57l-2.7,1.4c1.4,2.6,1.9,5.7,1.5,8.6l3,0.4C95.1,63.9,94.5,60.2,92.8,57z"/>
</svg>
