<?xml version="1.0" encoding="utf-8"?>
<!-- Generator: Adobe Illustrator 21.0.0, SVG Export Plug-In . SVG Version: 6.00 Build 0)  -->
<svg version="1.1" id="Layer_1" xmlns="http://www.w3.org/2000/svg" xmlns:xlink="http://www.w3.org/1999/xlink" x="0px" y="0px"
	 viewBox="0 0 120 120" style="enable-background:new 0 0 120 120;" xml:space="preserve">
<style type="text/css">
	.st0{fill:#1D0E4C;}
</style>
<path class="st0" d="M114.2,102.7l-5.6-21.1v-0.2C105.4,69.1,102,56.5,96,45.1c-1.7-3.2-3.9-6.9-7.3-9.3c-3.2-2.3-8.2-3.5-12.2-1.3
	c-2.7,1.4-4.6,3.9-5,6.9c-3.2-3-6.2-7.4-6.2-15.9c0-5-0.1-6.4-0.2-7.7S65,15.1,65,10.2V8.7h-3v1.5c0,5,0.1,6.4,0.2,7.7
	s0.2,2.6,0.2,7.6c0,12.8,6.1,17.5,10.5,20.9c1.1,0.8,2.1,1.7,3.1,2.7l1,1.1l2.3-2l-1-1.1c-1.1-1.1-2.3-2.2-3.5-3.1l-0.5-0.4l0.1-0.4
	c0.4-3,1.1-4.6,3.7-6.1c2.5-1.4,6.2-0.9,9,1.1s4.9,5.3,6.4,8.3c5.9,11.1,9.2,23.6,12.4,35.7l5.6,21.3c0.4,1.6,0.7,3.1,0,4
	c-0.8,1-2.8,1-4.5,0.8l-35.2-4.1h-0.2c-0.9,0-1.9-0.3-2.6-0.8c-0.7-0.9-1-2-1-3.1c-1.3-11.9-0.6-23.9,1.9-35.6
	c0.4-2.1,0.8-3.9,1.1-5.6c0.2-1.1,0.4-2.3,0.6-3.6c0.6,0.8,1.3,1.7,1.9,2.7l0.9,1.2l2.5-1.7l-0.9-1.2c-6.1-8.7-11-13.2-14.8-13.9
	v-0.1h-2.5v0.1c-3.9,0.7-8.8,5.2-14.8,13.9l-0.9,1.2l2.5,1.7l0.9-1.2c0.8-1.2,1.6-2.2,2.3-3.2c0.3,1.5,0.5,2.8,0.7,4.1
	c0.3,1.7,0.6,3.5,1.1,5.6c2.5,11.7,3.1,23.7,1.8,35.6c0,1.1-0.3,2.2-1,3.2c-0.8,0.5-1.7,0.8-2.6,0.8l-35.3,4.1
	c-1.7,0.2-3.7,0.3-4.5-0.8c-0.7-0.9-0.4-2.4,0-4l5.6-21.3c3.2-12.1,6.5-24.6,12.4-35.7c1.6-2.9,3.5-6.2,6.4-8.3s6.5-2.5,9-1.1
	c2.6,1.5,3.3,3.2,3.7,6.1v0.1l-1,0.8c-1.3,0.9-2.4,1.9-3.5,3.1l-1,1.1l2.3,2l1-1.1c1-1,2-1.9,3.1-2.7c4.4-3.4,10.5-8.2,10.5-20.9
	c0-4.9,0.1-6.3,0.2-7.6s0.2-2.7,0.2-7.7V8.7h-3v1.5c0,4.9-0.1,6.2-0.2,7.5s-0.2,2.7-0.2,7.7c0,8.2-2.7,12.5-5.8,15.5
	c-0.5-2.8-2.3-5.2-4.9-6.5c-4-2.3-9-1-12.2,1.3c-3.4,2.4-5.6,6.1-7.3,9.3C18,56.5,14.7,69.1,11.4,81.4l-5.7,21.3
	c-0.4,1.6-1.2,4.4,0.5,6.6c1.3,1.4,3.2,2.2,5.1,2.1c0.7,0,1.4-0.1,2.1-0.1l35.1-4.1c1.5,0,3-0.5,4.3-1.4l0.1-0.1
	c1.5-1.3,1.9-3.3,2.1-5.1c1.3-12.2,0.7-24.6-1.9-36.6c-0.4-2-0.7-3.8-1-5.5s-0.6-3.5-1-5.5L51,51.8c4.7-5.5,7.3-6.5,8.6-6.5h0.5
	c1.3,0,4.1,1.1,9,7l-0.1,0.6c-0.4,2-0.8,3.8-1,5.5s-0.6,3.5-1,5.5c-2.6,12-3.2,24.4-1.9,36.6c0.2,1.8,0.5,3.8,2.1,5.1l0.1,0.1
	c1.3,0.9,2.8,1.4,4.3,1.4l35.1,4.1c0.7,0.1,1.4,0.1,2.1,0.1c1.9,0.2,3.8-0.6,5.1-2.1C115.4,107.1,114.6,104.2,114.2,102.7z"/>
<path class="st0" d="M23.3,75.7c0.2-1.7,1.2-3.2,2.8-3.9c0.7-0.2,1.4-0.5,2-0.9l0.2-0.2c0.7-0.7,1.3-1.5,1.6-2.4
	c0.9-2.2,1.5-4.6,1.8-7c0-0.3,0.1-0.6,0.1-0.9c0-1.2,0.3-2.5,0.9-3.6c1.2-1.9,4.1-2.2,7.1-2.3h1.5l-0.1-3h-1.5
	c-2.4,0.1-7.3,0.2-9.5,3.7c-0.8,1.5-1.3,3.1-1.3,4.8c0,0.3-0.1,0.5-0.1,0.8c-0.3,2.2-0.8,4.3-1.6,6.3v0.1c-0.1,0.4-0.4,0.8-0.7,1.1
	c-0.4,0.2-0.8,0.4-1.3,0.6L25,68.9c-2.6,1.1-4.4,3.6-4.6,6.4l-0.1,1.5l3,0.3L23.3,75.7z"/>
<path class="st0" d="M46.6,84.3c-0.4,0-0.8-0.2-1-0.6c-0.3-0.8-0.5-1.7-0.6-2.6c-0.4-3.8-1.5-6.5-3.5-8.3c-0.5-0.4-1-0.8-1.5-1.1
	c-0.4-0.3-0.9-0.6-1.3-0.9c-1.6-1.6-1.9-4-0.8-5.9l0.8-1.3l-2.6-1.5l-0.8,1.3c-1.8,3.1-1.3,7.1,1.4,9.6c0.5,0.4,1,0.9,1.6,1.2
	c0.4,0.3,0.8,0.6,1.2,0.9c1.4,1.2,2.2,3.3,2.5,6.2c0.1,1.2,0.3,2.4,0.8,3.5c0.6,1.5,2.1,2.4,3.7,2.4h0.4l1.5-0.2l-0.3-3L46.6,84.3z"
	/>
<path class="st0" d="M17.3,99.1l-0.4,1.5l2.9,0.7l0.4-1.5c0.1-0.6,0.6-1.1,1.1-1.3c1.1-0.4,2.2-0.9,3.2-1.5l0.2-0.1
	c1.2-1.1,2.1-2.5,2.6-4.1c0.4-1.2,0.7-2.5,1-3.7c0.6-2.8,1.2-5.3,3-7.1c0.6-0.6,1.3-0.9,1.7-0.7l1.3,0.7l1.4-2.6l-1.3-0.7
	c-1.6-0.9-3.6-0.4-5.2,1.2c-2.4,2.3-3.1,5.5-3.8,8.6c-0.3,1.2-0.5,2.3-0.9,3.5c-0.3,1-0.8,1.9-1.6,2.6c-0.8,0.5-1.7,0.9-2.5,1.2
	C18.9,96.3,17.7,97.5,17.3,99.1z"/>
<path class="st0" d="M48.4,102.6l0.1-1.5c0.1-0.8-0.2-1.6-0.7-2.1c-0.7-0.8-1.7-1.2-2.8-1.3c-0.6,0-1.2,0-1.7,0.1
	c-0.4,0.1-0.8,0.1-1.2,0.1c-1-0.2-1.9-0.8-2.4-1.7c-0.6-1.1-1-2.4-1.2-3.7c-0.1-1-0.5-1.9-1-2.8c-0.9-1.2-2.5-1.7-3.8-1.1l-1.4,0.6
	l1.2,2.7l1.4-0.6c0,0,0.1,0,0.1,0c0.3,0.5,0.4,1,0.5,1.5c0.2,1.6,0.8,3.2,1.5,4.7c1,1.7,2.7,2.9,4.6,3.2c0.7,0.1,1.3,0,2-0.1
	c0.4-0.1,0.8-0.1,1.2-0.1c0.3,0,0.5,0.1,0.7,0.2l-0.1,1.5L48.4,102.6z"/>
<path class="st0" d="M95.5,69l-0.2-0.1c-0.4-0.1-0.9-0.3-1.3-0.6c-0.3-0.3-0.6-0.7-0.7-1.1v-0.1c-0.8-2-1.4-4.1-1.7-6.3
	c0-0.3-0.1-0.5-0.1-0.8c-0.1-1.7-0.5-3.4-1.3-4.9c-2.2-3.5-7.2-3.6-9.6-3.7h-1.5l-0.1,3h1.5c3,0.1,5.9,0.4,7.1,2.3
	c0.6,1.1,0.9,2.3,0.9,3.6c0,0.3,0.1,0.6,0.1,0.9c0.3,2.4,0.9,4.8,1.8,7c0.3,0.9,0.9,1.8,1.6,2.4l0.2,0.2c0.6,0.4,1.3,0.7,2,0.9
	c1.6,0.7,2.6,2.2,2.8,3.9l0.2,1.5l3-0.3l-0.2-1.5C99.9,72.6,98.1,70.1,95.5,69z"/>
<path class="st0" d="M75.4,81.2c0,0.8-0.2,1.7-0.6,2.4c-0.2,0.4-0.6,0.6-1,0.6l-1.5-0.1l-0.3,3l1.5,0.1H74c1.6,0,3-0.9,3.7-2.4
	c0.5-1.1,0.7-2.3,0.8-3.4c0.3-3,1.1-5.1,2.5-6.3c0.4-0.3,0.8-0.7,1.3-0.9c0.6-0.3,1.1-0.7,1.6-1.2c2.6-2.5,3.1-6.5,1.2-9.6l-0.8-1.3
	l-2.6,1.5l0.8,1.3c1.1,1.9,0.8,4.3-0.7,5.9c-0.4,0.3-0.8,0.6-1.2,0.9c-0.6,0.4-1.1,0.8-1.6,1.2C77,74.7,75.8,77.4,75.4,81.2z"/>
<path class="st0" d="M92.2,89.1c0.3,1.2,0.6,2.5,0.9,3.6c0.4,1.6,1.3,3.1,2.6,4.2L96,97c1,0.6,2.1,1.1,3.2,1.5
	c0.6,0.2,1,0.7,1.1,1.3l0.3,1.5l2.9-0.7l-0.3-1.5c-0.4-1.6-1.5-2.8-3-3.4c-0.9-0.3-1.7-0.7-2.6-1.2c-0.8-0.7-1.3-1.6-1.6-2.6
	c-0.3-1.1-0.6-2.2-0.9-3.4c-0.7-3.1-1.4-6.2-3.8-8.5c-1.6-1.6-3.7-2.1-5.2-1.3l-1.3,0.7l1.4,2.7l1.3-0.7c0.3-0.2,1.1,0.1,1.7,0.8
	C91.1,83.7,91.6,86.3,92.2,89.1z"/>
<path class="st0" d="M76.9,100.8c0.7,0.1,1.4,0.1,2.1,0.1c2-0.3,3.7-1.5,4.6-3.2c0.8-1.5,1.3-3.1,1.5-4.7c0.1-0.5,0.2-1,0.5-1.4
	c0,0,0.1,0,0.2,0l1.4,0.6l1.2-2.7L87,88.8c-1.4-0.6-3-0.2-3.9,1.1c-0.5,0.8-0.9,1.7-1,2.7c-0.2,1.3-0.6,2.5-1.2,3.7
	c-0.5,0.9-1.4,1.5-2.4,1.7c-0.4,0-0.9,0-1.3-0.1c-0.6-0.1-1.2-0.1-1.7-0.1c-1.1,0-2.1,0.5-2.8,1.2c-0.5,0.6-0.8,1.3-0.8,2.1l0.1,1.5
	l3-0.1L75,101c0.2-0.2,0.5-0.3,0.8-0.3C76.1,100.7,76.5,100.7,76.9,100.8z"/>
</svg>
