<?xml version="1.0" encoding="utf-8"?>
<!-- Generator: Adobe Illustrator 21.0.0, SVG Export Plug-In . SVG Version: 6.00 Build 0)  -->
<svg version="1.1" id="Layer_1" xmlns="http://www.w3.org/2000/svg" xmlns:xlink="http://www.w3.org/1999/xlink" x="0px" y="0px"
	 viewBox="0 0 120 120" style="enable-background:new 0 0 120 120;" xml:space="preserve">
<style type="text/css">
	.st0{fill:#1D0E4C;}
</style>
<path class="st0" d="M49.8,67.2L32,63.7c-3.7-0.7-7.3,1.7-8.1,5.4l0,0c-0.7,3.7,1.7,7.3,5.4,8.1l17.8,3.5c3.7,0.7,7.3-1.7,8.1-5.4
	C55.9,71.5,53.5,67.9,49.8,67.2L49.8,67.2z M27.4,72.6c-0.6-0.8-0.8-1.9-0.6-2.9l0,0c0.4-1.8,1.9-3.1,3.8-3.1c0.3,0,0.5,0,0.8,0.1
	l5.6,1.1c-1.3,1.8-2,4.1-2,6.3c0,0.4,0,0.8,0.1,1.2l-5.2-1C28.9,74,28,73.5,27.4,72.6z M52.2,74.7c-0.4,2.1-2.4,3.5-4.5,3.1
	l-9.2-1.8c-0.4-0.5-0.5-1.2-0.5-1.8c0-2.1,0.8-4.2,2.3-5.7l8.9,1.7C51.3,70.5,52.7,72.6,52.2,74.7L52.2,74.7z"/>
<path class="st0" d="M73.2,43.9c0-1.8-0.7-3.6-1.9-4.9l0,0c-2.6-2.7-7-2.8-9.7-0.1l-13,12.7c-2.7,2.6-2.8,7-0.1,9.7
	c2.6,2.7,7,2.8,9.7,0.1l13-12.7C72.5,47.5,73.2,45.8,73.2,43.9z M56,59.3c-1.5,1.5-4,1.5-5.5-0.1c-1.5-1.5-1.5-4,0.1-5.5l0,0
	l6.8-6.6c0.7,0,1.3,0.2,1.8,0.6c1.8,1.2,3,3.1,3.4,5.2L56,59.3z M69,46.6l-4.1,4c-0.7-2.1-2.1-4-4-5.3c-0.3-0.2-0.6-0.4-1-0.6
	l3.8-3.7c1.5-1.5,4-1.5,5.5,0.1l0,0C70.7,42.7,70.7,45.1,69,46.6L69,46.6z"/>
<path class="st0" d="M31.6,58.9c0.3,0,0.6,0,0.9,0c5.1,0,9.2-4.1,9.2-9.2c0-2.7-1.2-5.3-3.3-7c-2.4-1.9-5.6-2.6-8.5-1.7
	c-2.9,0.7-5.3,2.7-6.4,5.4c-0.9,2.6-0.5,5.4,1,7.7C26,56.7,28.6,58.4,31.6,58.9z M38.6,50.3c-0.3,3.4-3.4,5.9-6.8,5.5c0,0,0,0,0,0
	c-0.7-0.1-1.3-0.3-1.9-0.6l6.4-10.4l0.2,0.1C38,46.3,38.8,48.3,38.6,50.3z M26.3,47.5c0.8-1.8,2.4-3.2,4.3-3.6
	c0.9-0.2,1.9-0.3,2.9-0.2l-5.9,9.6c-0.2-0.3-0.4-0.5-0.6-0.8C26,51.1,25.7,49.2,26.3,47.5z"/>
<path class="st0" d="M87.6,68c-0.5-3.2-3.6-5-6.6-5.3c-3.4-0.2-6.7,0.5-9.7,2c-2.3,1-4.3,2.3-6.2,3.9c-0.5,0.5-5.1,4.9-4.7,8.8
	s4.2,5.6,8,5.6c0.4,0,0.8,0,1.2-0.1l0,0c6.5-0.7,12.4-4,16.3-9.3c1.3-1.5,2-3.5,1.9-5.5L87.6,68z M83.4,71.7L83.4,71.7
	c-3.4,4.7-8.6,7.7-14.2,8.2c-1.9,0.2-5.6-0.2-5.9-2.9c-0.2-1.7,1.8-4.5,3.8-6.3c1.6-1.4,3.4-2.6,5.4-3.4h0.1
	c2.2-1.1,4.6-1.7,7.1-1.7c0.3,0,0.7,0,1,0c1.8,0.2,3.7,1.2,3.9,2.8C84.6,69.6,84.2,70.8,83.4,71.7L83.4,71.7z"/>
<path class="st0" d="M96.9,48.5c-0.3-2.9-2-5.5-4.5-7c-2.4-1.2-5.3-1.3-7.8,0c-2.8,1.2-4.8,3.6-5.6,6.5c-1.2,4.9,1.9,9.9,6.8,11
	c2.9,0.7,6-0.1,8.3-2.1C96.3,54.7,97.4,51.6,96.9,48.5z M88.6,43.6c0.8,0,1.6,0.2,2.4,0.6c1.7,1,2.8,2.7,3,4.7c0.1,1,0,2-0.2,2.9
	L85,44.7c0.3-0.2,0.6-0.3,0.9-0.5C86.7,43.9,87.6,43.6,88.6,43.6z M86.5,56.1c-3.3-0.8-5.4-4.1-4.6-7.4l0,0c0.2-0.7,0.4-1.3,0.8-1.8
	l9.5,7.7L92,54.6C90.5,56,88.5,56.5,86.5,56.1z"/>
</svg>
