<?xml version="1.0" encoding="utf-8"?>
<!-- Generator: Adobe Illustrator 21.0.0, SVG Export Plug-In . SVG Version: 6.00 Build 0)  -->
<svg version="1.1" id="Layer_1" xmlns="http://www.w3.org/2000/svg" xmlns:xlink="http://www.w3.org/1999/xlink" x="0px" y="0px"
	 viewBox="0 0 120 120" style="enable-background:new 0 0 120 120;" xml:space="preserve">
<style type="text/css">
	.st0{fill:#1D0E4C;}
</style>
<path class="st0" d="M74.7,36.7h-3c0,2.4,0.6,4.8,1.9,6.8l2.6-1.6C75.2,40.3,74.7,38.5,74.7,36.7z"/>
<path class="st0" d="M90.4,33.9c0.8,1.7,1.1,3.5,0.9,5.4l3,0.3c0.3-2.4-0.1-4.8-1.1-7L90.4,33.9z"/>
<path class="st0" d="M70.1,52v3c2.4,0,4.8-0.7,6.8-2l-1.6-2.5C73.7,51.4,71.9,52,70.1,52z"/>
<path class="st0" d="M94.3,27.3l-1.6-2.5c-1.6,1-3.4,1.5-5.2,1.5v3C89.9,29.3,92.3,28.6,94.3,27.3z"/>
<path class="st0" d="M73,27.8v3c2.4,0,4.8-0.7,6.8-2l-1.6-2.5C76.7,27.2,74.9,27.7,73,27.8z"/>
<path class="st0" d="M62.8,29.9v-3c-2.4,0-4.8,0.7-6.8,2l1.6,2.6C59.1,30.5,60.9,29.9,62.8,29.9z"/>
<path class="st0" d="M108.8,26c-2.4,0-4.8,0.7-6.8,2l1.6,2.5c1.6-1,3.4-1.5,5.2-1.5L108.8,26z"/>
<path class="st0" d="M80.9,41l1.6,2.5c1.6-1,3.4-1.5,5.2-1.5v-3C85.3,38.9,83,39.7,80.9,41z"/>
<path class="st0" d="M64.2,53l-19.7,1.5l18.1-9l-1.4-2.7l-17.6,8.8l12-14.9l-2.3-1.9L41.1,49.8l6.3-19.1l-2.8-1l-6,18.1l-1.4-18.2
	l-3,0.2l1.4,19l-8.9-17.7l-2.7,1.3l8.5,17L18.8,36.5l-2.1,2.2l15,14.2l-19.6-6.5l-0.9,2.8L35,57.1l-0.7,1.7
	c-3,7.2-8.1,19.2-4.1,36.4l2.9-0.7c-3.8-16.2,0.9-27.2,4-34.5c0.3-0.7,0.5-1.3,0.8-1.9L63,66.5l1-2.8l-18.6-6.2L64.4,56L64.2,53z"/>
</svg>
