<?xml version="1.0" encoding="utf-8"?>
<!-- Generator: Adobe Illustrator 21.0.0, SVG Export Plug-In . SVG Version: 6.00 Build 0)  -->
<svg version="1.1" id="Layer_1" xmlns="http://www.w3.org/2000/svg" xmlns:xlink="http://www.w3.org/1999/xlink" x="0px" y="0px"
	 viewBox="0 0 120 120" style="enable-background:new 0 0 120 120;" xml:space="preserve">
<style type="text/css">
	.st0{fill:#1D0E4C;}
</style>
<path class="st0" d="M58.9,54c-2.3,0-4.2,1.8-4.2,4.1c0,2.3,1.8,4.2,4.1,4.2s4.2-1.8,4.2-4.1c0,0,0,0,0,0C63,55.9,61.2,54,58.9,54z
	 M58.9,59.3c-0.6,0-1.2-0.5-1.2-1.1c0-0.6,0.5-1.2,1.1-1.2c0.6,0,1.2,0.5,1.2,1.1c0,0,0,0,0,0C60,58.8,59.5,59.3,58.9,59.3z"/>
<path class="st0" d="M50.7,51.3c0-2.6-2.1-4.7-4.7-4.7c-2.6,0-4.7,2.1-4.7,4.7c0,2.6,2.1,4.7,4.7,4.7c0,0,0,0,0,0
	C48.6,56,50.7,53.9,50.7,51.3z M44.3,51.3c0-0.9,0.8-1.7,1.7-1.7s1.7,0.8,1.7,1.7c0,0.9-0.7,1.7-1.7,1.7
	C45.1,53,44.3,52.3,44.3,51.3C44.3,51.3,44.3,51.3,44.3,51.3z"/>
<path class="st0" d="M49.7,60.7c-2.8,0-5,2.2-5,5s2.2,5,5,5s5-2.2,5-5S52.4,60.7,49.7,60.7z M49.7,67.7c-1.1,0-2-0.9-2-2s0.9-2,2-2
	s2,0.9,2,2S50.8,67.7,49.7,67.7z"/>
<path class="st0" d="M57.3,50.5c2.3,0,4.2-1.9,4.2-4.2s-1.9-4.2-4.2-4.2c-2.3,0-4.2,1.9-4.2,4.2C53.1,48.6,54.9,50.5,57.3,50.5
	L57.3,50.5z M57.3,45.1c0.7,0,1.2,0.5,1.2,1.2s-0.5,1.2-1.2,1.2s-1.2-0.5-1.2-1.2S56.6,45.1,57.3,45.1L57.3,45.1z"/>
<path class="st0" d="M89.9,32.8L89.9,32.8c-0.2-1.5-0.8-2.7-1.7-3.8l0.1-0.1l-0.6-0.6c0-0.2,0.1-0.5,0.2-0.9c0.5-1.9,1.3-5-0.2-7.4
	c-0.8-1.2-2.1-2.1-3.6-2.3c-1.6-0.3-3.3,0-4.7,0.8c0-1.2-0.4-2.3-1-3.3c-0.8-1.1-2-1.8-3.4-2c-1.6-0.4-3.4-0.3-4.9,0.4
	c-0.1-1.1-0.5-2.1-1.2-3c-0.9-1.2-2.2-1.9-3.7-2C63.5,8.5,61.6,9,60,10.1c-0.2-0.9-0.6-1.7-1.2-2.3c-1-1-2.4-1.5-3.8-1.4
	c-3.6,0-5.6,1.1-6.7,2.5c-1.3-2.8-4.2-4.5-7.3-4.3c-3.2,0-6,1.4-8.7,4.3c-2.4,2.6-2.5,6.2-2.4,9.5c0.3,3.2,1.3,6.3,3,9.1l0.2,0.3
	c-1.2,1.5-2,3.4-2.2,5.4c-0.6,3.8,0.5,7.8,1.6,11.7c0.5,1.8,1,3.6,1.3,5.2c1.2,7,2.3,14.2,3.3,21.3c1,7.8,1.9,15.8,2.6,23.6
	c0.4,4.3,0.8,9.2,4.1,13.3c2.7,3.1,6.3,5.4,10.3,6.4c3.1,1,6.5,1.1,9.7,0.3h0.1c1.8-0.6,3.4-1.5,4.8-2.7c6.3-5.1,7.8-12.2,9-18
	l11.6-54.9C90,37.2,90.2,35,89.9,32.8z M86.5,38.6l-11.6,55c-1.4,6.7-2.9,12.2-8,16.3c-1.1,1-2.4,1.7-3.8,2.1
	c-2.7,0.6-5.5,0.5-8.1-0.3c-3.4-0.9-6.5-2.8-8.8-5.5c-2.7-3.4-3-7.6-3.4-11.7c-0.7-7.9-1.5-15.9-2.6-23.8c-1-7.1-2.1-14.3-3.3-21.4
	c-0.3-1.8-0.8-3.7-1.3-5.5c-1-3.6-2-7.2-1.5-10.4c0.5-3,1.6-4.6,3.9-5.4l1.4-0.5l-1.1-2.8l-1.4,0.5c-0.4,0.2-0.8,0.3-1.2,0.6
	c-1.4-2.3-2.3-4.9-2.5-7.6c-0.1-2.6,0-5.5,1.6-7.3c2.1-2.3,4.1-3.3,6.4-3.3c4.8,0,5.6,4.5,5.6,7.2V16c0,1.3,0.1,2.6,0.3,3.9
	c0.1,0.7,0.2,1.4,0.3,2.3l0.2,1.5l3-0.3l-0.2-1.5c-0.1-0.9-0.2-1.7-0.3-2.4c-0.2-1.1-0.3-2.1-0.3-3.2l0,0V16c0-0.3,0-0.7,0-1.1v-0.4
	c0.2-2.9,0.4-5.2,5.4-5.2c1.2,0,1.5,0.4,1.6,0.5c0.5,0.5,0.7,1.5,0.6,3.2c0,1.3-0.1,2.2-0.2,3c-0.1,1.2-0.2,2.5-0.2,3.7
	c0,0.4,0,0.9,0,1.5v1.5h3v-1.5c0-0.2,0-0.5,0-0.8s0-0.5,0-0.7c0-1.4,0.1-2.2,0.2-3.3l0,0c0.1-1.4,0.6-2.7,1.6-3.8
	c1-0.8,2.2-1.1,3.5-0.9c0.6,0,1.2,0.3,1.6,0.8c1.1,1.4,0.8,4.4,0.4,6.6c-0.2,0.8-0.3,1.6-0.5,2.6l-0.2,1.5l0,0l3,0.5l0.3-1.5
	l0.1-0.6c0.1-0.6,0.3-1.3,0.4-2.1c0.9-3.7,1.9-3.7,4.6-3.3c0.6,0,1.1,0.3,1.4,0.8c1,1.4,0.4,4.4,0.1,5.8C76.1,23,76,23.3,76,23.5
	l0,0L75.7,25h0.1l0,0l1.5,0.2l1.4,0.3v0h0.1l0.2-1.4c0.3-1.1,1-2.1,1.9-2.8c0.8-0.6,1.8-0.8,2.7-0.6c0.7,0.1,1.3,0.4,1.7,1
	c0.7,1.2,0.2,3.4-0.1,4.8l-1-0.5l-1.4,2.7l1.3,0.7c0.5,0.2,0.9,0.5,1.2,0.9l0.2,0.1c0.8,0.8,1.3,1.8,1.6,2.9
	C87.2,35,87,36.8,86.5,38.6z"/>
</svg>
