<?xml version="1.0" encoding="utf-8"?>
<!-- Generator: Adobe Illustrator 21.0.0, SVG Export Plug-In . SVG Version: 6.00 Build 0)  -->
<svg version="1.1" id="Layer_1" xmlns="http://www.w3.org/2000/svg" xmlns:xlink="http://www.w3.org/1999/xlink" x="0px" y="0px"
	 viewBox="0 0 120 120" style="enable-background:new 0 0 120 120;" xml:space="preserve">
<style type="text/css">
	.st0{fill:#1D0E4C;}
</style>
<path class="st0" d="M29.6,46.1c1,0.7,2.3,1,3.5,0.8c0.4-0.1,0.8-0.1,1.3,0c0.9,0.2,1.4,1.5,1.4,2.6c0,0.9-0.3,1.8-0.9,2.5
	c-0.5,0.5-1.3,0.8-2,0.6c-0.6-0.2-1-0.8-0.8-1.5l-3-0.6c-0.4,2.1,0.8,4.2,2.8,4.8c1.8,0.6,3.8,0,5.1-1.4c1.1-1.2,1.7-2.9,1.7-4.5
	c0-2.3-1.3-4.9-3.8-5.5c-0.7-0.1-1.4-0.2-2.1-0.1c-0.4,0.1-0.9,0.1-1.3,0c-0.2-0.4-0.2-0.8,0-1.2l0.1-0.2c0.2-0.5,0.7-0.9,1.2-1
	c0.3-0.1,0.5,0.1,0.6,0.4l2.9-0.7c-0.4-1.8-2.3-3-4.1-2.6c-1.4,0.3-2.6,1.3-3.2,2.6c-0.9,1.5-0.7,3.5,0.5,4.8L29.6,46.1z"/>
<path class="st0" d="M43,54.8l0.2,0.1c0.5,0.3,1.1,0.4,1.7,0.4c1.5-0.1,2.9-0.8,3.9-1.9c3-3.4,3.5-8.4,1-12.3
	c-0.7-1.3-2.1-2.1-3.6-2.1c-1.9,0.3-3.6,1.6-4.3,3.4v0.1c-1.1,2.7-1.4,5.6-0.9,8.5C41,52.5,41.8,53.9,43,54.8z M44.5,43.7
	c0.3-0.8,1-1.5,1.8-1.7c0.3,0,0.6,0.2,0.9,0.7c1.7,2.7,1.4,6.3-0.7,8.7c-0.6,0.7-1.4,1-1.9,0.9c-0.5-0.4-0.8-0.9-0.8-1.5v-0.2
	C43.4,48.2,43.6,45.9,44.5,43.7z"/>
<path class="st0" d="M69.5,48.3c3.5-0.1,6.3-3,6.3-6.5c0-0.6-0.1-1.1-0.3-1.6L75.3,40c-0.6-0.9-1.7-1.4-2.7-1.5
	c-1.8-0.2-3.5,0.2-5.1,1.1L66.8,40v0.8c-0.2,4.5-0.4,9.1-0.4,13.6h3C69.4,52.4,69.4,50.3,69.5,48.3z M69.7,41.9
	c0.8-0.3,1.7-0.5,2.6-0.3h0.2c0.1,0,0.2,0,0.3,0.1c0,0,0,0.1,0,0.2c0,1.8-1.4,3.4-3.2,3.5C69.6,44.1,69.6,43,69.7,41.9L69.7,41.9z"
	/>
<path class="st0" d="M57,48.9c0.9-0.1,1.9-0.2,2.8-0.2c0.5,1.9,0.9,4,1.4,6.4l2.9-0.6c-0.8-4-2.8-13.6-4.6-15.3L58.4,38l-1,1.3
	c-1.9,2.5-3.8,11.3-4.4,14.9l3,0.5C56.2,52.9,56.6,50.8,57,48.9z M59.3,47.9l0.3-0.1l0.2,0.6C59.6,48.2,59.4,48.1,59.3,47.9
	L59.3,47.9z M58.5,43.8c0.2,0.5,0.4,1.2,0.6,1.9l-1.2,0.1C58.1,45.1,58.3,44.4,58.5,43.8L58.5,43.8z"/>
<path class="st0" d="M103.1,54c-0.9-1.5-1.6-3.2-1.9-4.9c0-1.4-0.2-2.7-0.5-4l-0.1-0.2c-1.2-2.8-4.4-3.9-7.1-3.5h-0.1
	c-1.7,0.4-3.4,1.1-4.9,2c-3-9.8-18-17.1-36.6-17.1c-20.8,0-37.1,9-37.2,20.6l0,0v10c0,4,1.9,7.7,5.3,10.8c-1,3.9-1.1,8-0.5,12
	c1,5,4.1,9,8.1,10.6c5.4,2.2,11.3-0.2,16.4-2.2l0.4-0.1c6.5-2.6,11.1-2.7,14-0.4c0.7,0.6,1.3,1.2,1.9,1.9c0.8,0.9,1.6,1.7,2.5,2.4
	c1.7,1.2,3.6,1.8,5.7,1.8c3.9,0,8.1-2.1,11-4.9c1.7-1.7,3.3-3.6,4.7-5.5c1.7-2.4,3.8-4.6,6.1-6.6c1.5-1.1,3.1-2.1,4.8-3
	c1.5-0.8,3-1.7,4.4-2.7c4-2.8,6.2-6.6,6-10.2C105.3,58.2,104.2,56.1,103.1,54z M51.8,29.3c18.5,0,34.2,8.1,34.2,17.7l0,0v0.2
	c-0.2,9.5-15.8,17.5-34.2,17.5s-34.2-8.1-34.2-17.7S33.3,29.3,51.8,29.3z M17.6,57v-1.6c5.6,7.4,18.7,12.4,34.2,12.4
	s28.5-5,34.2-12.4V57c0,9.6-15.7,17.7-34.2,17.7C33,74.7,17.6,66.8,17.6,57z M97.6,68.5c-1.3,0.9-2.7,1.7-4.1,2.5
	c-1.8,1-3.5,2-5.2,3.3c-2.5,2.1-4.7,4.5-6.6,7.1c-1.4,1.8-2.9,3.6-4.4,5.2c-3.5,3.4-9.2,5.5-12.8,2.9c-0.8-0.6-1.5-1.3-2.1-2
	c-0.7-0.8-1.4-1.5-2.2-2.2c-3.9-3.1-9.4-3.1-17,0l-0.4,0.2c-4.9,1.9-9.9,4-14.2,2.2c-3.6-1.4-5.6-5.3-6.2-8.4
	c-0.5-3.1-0.5-6.2,0.2-9.2c6.8,4.8,17.3,7.8,29.3,7.8C72.7,77.7,89,68.6,89,57v-9.7c0-0.1,0-0.2,0-0.2s0-0.3,0-0.4
	c1.5-1.1,3.1-1.9,4.9-2.3c1.4-0.2,3.2,0.3,3.8,1.6c0.3,1.1,0.4,2.1,0.4,3.2v0.2c0.4,2.1,1.2,4.2,2.3,6c1.1,1.6,1.7,3.5,2,5.4
	C102.6,64.5,99.1,67.4,97.6,68.5z"/>
</svg>
