<?xml version="1.0" encoding="utf-8"?>
<!-- Generator: Adobe Illustrator 21.0.0, SVG Export Plug-In . SVG Version: 6.00 Build 0)  -->
<svg version="1.1" id="Layer_1" xmlns="http://www.w3.org/2000/svg" xmlns:xlink="http://www.w3.org/1999/xlink" x="0px" y="0px"
	 viewBox="0 0 120 120" style="enable-background:new 0 0 120 120;" xml:space="preserve">
<style type="text/css">
	.st0{fill:#1D0E4C;}
</style>
<path class="st0" d="M75.5,88.6L75.5,88.6c0.8-1.2,1.6-2.3,2.2-3.5c2-0.7,10-3.3,12.3-5.7s3.8-6.6,2.3-10.3c-0.7-1.7-2-3.1-3.7-3.9
	c-1.2-0.6-2.6-0.9-4-0.8c0.2-1.5,0.3-3,0.2-4.5h-0.1c0.1-0.9,0.1-1.9,0-2.8c-0.9-4.6-5.3-6.6-6.7-7.3c-2.7-1.3-5.5-2.3-8.3-3.1
	c0.1-0.3,0.2-0.6,0.2-0.8c0.3-0.9,0.7-1.7,1.1-2.6c0.6-1.3,1.1-2.6,1.5-4V39c0.4-2.5,0.3-5-0.2-7.5l-2.9,0.6
	c0.4,2.1,0.5,4.2,0.2,6.3c-0.3,1.2-0.8,2.3-1.3,3.4c-0.4,0.9-0.8,1.9-1.2,2.9c-0.1,0.4-0.2,0.7-0.3,1.1c-5.2-1.1-10.5-1.4-15.8-0.9
	c0.6-1.3,1-2.6,1.2-4c0.1-1.4-0.1-2.7-0.4-4.1c-0.5-2.8-0.8-5.5-1-8.3l-3,0.2c0.2,2.9,0.5,5.8,1,8.7c0.2,1.1,0.3,2.2,0.3,3.3
	c-0.2,1.5-0.7,2.8-1.5,4.1l-0.3,0.6c-4.8,0.8-16.9,3.4-19.7,9.2c-0.8,1.8-0.8,3.8,0.1,5.6c0.5,2.3,0.9,4.8,1.4,7.4
	c0.9,5.4,1.8,11.1,3.7,15.2c2.8,6.3,8.1,11.2,14.7,13.5c2.5,0.8,5.1,1.1,7.8,1.1c3.6,0,7.1-0.7,10.4-2.1c1.5-0.5,3-1.2,4.4-2.1
	c1.2,1.4,2.6,2.6,4.1,3.8l-2.4,3.9l11.4,5.4L89,94.1l-10.7-3.8l-2.6,4.2c-1.2-0.9-2.2-1.9-3.2-3C73.6,90.6,74.6,89.6,75.5,88.6z
	 M79.6,93.9l5.3,1.9l-3.2,6.6L76,99.7L79.6,93.9z M87.3,67.8c1,0.5,1.8,1.3,2.3,2.4c1,2.3-0.1,5.4-1.7,7c-1.1,1.2-5.1,2.8-8.4,4
	c0.4-0.9,0.7-1.9,1-2.8l0.7-2.1c1.1-2.9,2.1-5.9,2.8-9C85.2,67.1,86.3,67.3,87.3,67.8L87.3,67.8z M46.1,48.7
	c-0.5,1.9-0.7,3.8-0.5,5.8l3-0.3c-0.2-2.1,0.1-4.1,0.9-6.1h0.1c5.6-0.8,11.3-0.6,16.9,0.7c-0.1,1.8,0.2,3.6,0.7,5.3l2.8-1
	c-0.4-1.1-0.6-2.4-0.6-3.6c2.5,0.7,5,1.7,7.4,2.8c3,1.4,4.6,3.1,5,5.2c0.4,2.2-0.4,4.5-1.9,6.1c-1.6,1.4-3.5,2.3-5.5,2.8
	c-1.7,0.5-3.5,0.9-5.2,1.2c-0.3-1.6-1.1-3.1-2.2-4.3c-2.1-2-5.5-2.6-8.8-1.4c-2.5,1.1-4.8,2.6-6.7,4.6c-0.4,0.3-0.6,0.8-0.7,1.3
	c-5.4-0.9-10.7-2.5-15.7-4.9H35c-1.7-0.7-3.1-1.8-4.1-3.2c-0.1-0.1-0.1-0.2-0.2-0.3c-0.2-0.8-0.4-1.5-0.6-2.2c0-0.4,0.1-0.7,0.3-1.1
	C32,52.4,39.7,49.9,46.1,48.7z M52,67.9l-1-0.2c0.1-0.6,0.6-1.2,1.2-1.2h0.2c0.6,0,1.2,0.5,1.3,1.1c0,0.1,0,0.2,0,0.3L52,67.9z
	 M66.2,68c-4.1,0.5-8.2,0.5-12.2,0.1c1.5-1.4,3.3-2.6,5.3-3.5c1.8-0.7,4.2-0.7,5.6,0.7C65.5,66.1,65.9,67,66.2,68L66.2,68z
	 M64.6,92.6c-5.1,2.1-10.8,2.5-16.1,0.9c-5.7-2-10.4-6.3-12.8-11.9c-1.8-3.9-2.7-9.3-3.5-14.5c-0.2-0.9-0.3-1.8-0.5-2.7
	c0.7,0.4,1.4,0.8,2.1,1.1c8,3.9,16.8,5.9,25.7,5.9c2.2,0,4.5-0.1,6.7-0.4c-0.2,1.3-0.4,2.6-0.7,3.9c-0.6,2.8-0.8,5.6-0.4,8.4
	c0.5,2.8,1.6,5.4,3.2,7.7C67,91.7,65.8,92.2,64.6,92.6z M70.6,89.2c-1.3-1.9-2.2-4.1-2.6-6.4c-0.3-2.4-0.2-4.9,0.4-7.2
	c0.4-1.6,0.7-3.3,0.9-5c2-0.3,3.9-0.8,5.9-1.3c2.3-0.5,4.4-1.5,6.2-3c-0.7,3.1-1.7,6.1-2.8,9c-0.2,0.7-0.5,1.4-0.8,2.2
	c-1,3.3-2.5,6.4-4.5,9.2C72.4,87.6,71.5,88.4,70.6,89.2L70.6,89.2z"/>
<path class="st0" d="M60.3,32.7c0.3,0.8,1.2,3.5-0.1,4.9l2.2,2c1.7-1.9,1.9-4.8,0.6-8c-0.2-0.6-0.5-1.1-0.7-1.7
	c-0.7-1.3-1.2-2.8-1.3-4.2c0.1-1.4,0.4-2.8,1-4.1c0.1-0.4,0.3-0.7,0.4-1.1c1-2.8,1-5.1,0-7l-2.7,1.3c0.6,1.1,0.5,2.7-0.2,4.6
	c-0.1,0.4-0.2,0.7-0.4,1c-0.7,1.7-1.1,3.4-1.2,5.2c0.2,1.9,0.7,3.7,1.6,5.4C59.9,31.7,60.1,32.2,60.3,32.7z"/>
</svg>
