<?xml version="1.0" encoding="utf-8"?>
<!-- Generator: Adobe Illustrator 21.0.0, SVG Export Plug-In . SVG Version: 6.00 Build 0)  -->
<svg version="1.1" id="Layer_1" xmlns="http://www.w3.org/2000/svg" xmlns:xlink="http://www.w3.org/1999/xlink" x="0px" y="0px"
	 viewBox="0 0 120 120" style="enable-background:new 0 0 120 120;" xml:space="preserve">
<style type="text/css">
	.st0{fill:#1D0E4C;}
</style>
<path class="st0" d="M64.7,84.4v-0.1c0.1-0.9-0.1-1.8-0.4-2.6c-0.3-0.7-0.7-1.4-1.2-1.9l0-0.1l3.7-54.8v-0.2v-0.2
	c-0.5-3.2-3.3-5.4-6.5-5.3c-3,0.1-5.6,2.2-6.4,5.1l0,0.2l1.8,55.1c-1,1-1.6,2.3-1.8,3.7c-0.3,1.7,0.2,3.4,1.4,4.7l0.2,0.2
	c0.9,0.7,2,1.1,3.1,1.1h0.3c1.1,0,2.1-0.3,3.1-0.8C63.4,87.7,64.5,86.2,64.7,84.4z M60.4,85.8c-0.6,0.3-1.2,0.5-1.9,0.5
	c-0.5,0-0.9-0.1-1.3-0.4c-0.5-0.6-0.7-1.3-0.5-2v-0.1c0.1-0.9,0.6-1.7,1.3-2.2l0.6-0.5l-1.8-56.2c0.5-1.6,1.9-2.7,3.6-2.7
	c1.6-0.1,3.1,1,3.4,2.6l-0.2,2.6c-1.4,0-3.7-0.1-4.5-0.1v3c0.7,0,3,0,4.3,0.1l-0.1,2.2c-1.4,0-3.5-0.1-4.2-0.1v3l4,0.1l-0.1,2.2
	L59,37.7v3l3.6,0l-0.1,2.2c-1.2,0-2.8,0-3.5,0v3l3.3,0l-0.2,2.2c-1.1,0-2.5,0-3.1,0v3h2.9l-0.1,2.2l-2.8-0.1l-0.1,3l2.6,0.1
	l-0.2,2.2l-2.4-0.1l-0.1,3l2.3,0.1l-0.1,2.2l-2-0.1l-0.1,3l1.9,0.1l-0.1,2.2l-1.7,0l-0.1,3l1.6,0.1l-0.1,2.2h-1.3l-0.1,3h1.2
	l-0.3,4.2l0.6,0.5c0.1,0.1,0.2,0.2,0.3,0.3c0.2,0.3,0.4,0.6,0.6,0.9v0.1c0.2,0.4,0.2,0.8,0.2,1.2C61.6,84.8,61.1,85.5,60.4,85.8z"/>
<path class="st0" d="M47.3,88.8c-0.7,0.8-1.6,1.5-2.5,2.1l1.3,2.7c1.2-0.7,2.3-1.6,3.3-2.7c0.8-1,1.8-1.8,3-2.2l-0.8-2.9
	C49.9,86.4,48.5,87.5,47.3,88.8z"/>
<path class="st0" d="M55,91.5c-0.2,3.1-0.2,6.1,0,9.2l3-0.2c-0.2-2.9-0.2-5.9,0-8.8L55,91.5z"/>
<path class="st0" d="M60.5,91.9c1.8,2.6,3.5,5.4,4.9,8.3l2.7-1.3c-1.5-3-3.2-6-5.1-8.7L60.5,91.9z"/>
<path class="st0" d="M73.2,88.5c-0.8,0.1-1.7,0-2.4-0.5c-0.2-0.1-0.4-0.3-0.6-0.4c-0.2-0.1-0.6-0.4-0.8-0.5
	c-0.8-0.5-1.8-0.8-2.7-0.7l0.4,3c0.3,0,0.5,0.1,0.7,0.2c0.2,0.1,0.5,0.3,0.7,0.5c0.2,0.2,0.5,0.4,0.8,0.5c1.4,0.8,3,1.1,4.6,0.9H74
	c0.2-0.1,0.5-0.1,0.7,0l0.5-3C74.5,88.3,73.9,88.3,73.2,88.5z"/>
</svg>
