<?xml version="1.0" encoding="utf-8"?>
<!-- Generator: Adobe Illustrator 21.0.0, SVG Export Plug-In . SVG Version: 6.00 Build 0)  -->
<svg version="1.1" id="Layer_1" xmlns="http://www.w3.org/2000/svg" xmlns:xlink="http://www.w3.org/1999/xlink" x="0px" y="0px"
	 viewBox="0 0 120 120" style="enable-background:new 0 0 120 120;" xml:space="preserve">
<style type="text/css">
	.st0{fill:#1D0E4C;}
</style>
<title>vaccine</title>
<path class="st0" d="M85.8,72.5L36.7,35.1l-3.3,4.7c-1.5-1-3.1-1.9-4.7-2.7c1.2-1.7,2.4-3.5,3.6-5.2l-2.4-1.8
	c-2.8,3.9-5.6,8-8.3,12.1l2.5,1.6c0.9-1.4,1.9-2.8,2.9-4.3c1.6,0.8,3.1,1.7,4.6,2.6l-3,4.3L78.3,84l2.7-4.1c2.9,2.3,6,4.4,9.1,6.3
	l1.6-2.6c-3.1-1.9-6.1-4-9-6.3L85.8,72.5z M37.3,39.3l6.6,5L42,47l2.4,1.8l2-2.7l5.3,4l-1.8,2.3l2.4,1.8L54,52l4.7,3.6L56.8,58
	l2.4,1.8l1.9-2.5l4.6,3.5c-1,1.7-2.5,3.9-3.6,5.5l-0.7,1L32.7,45.9L37.3,39.3z M77.6,79.7L63.8,69.3l0.7-1.1
	c1.1-1.6,2.5-3.6,3.6-5.4l13.7,10.4L77.6,79.7z"/>
<path class="st0" d="M57,39.6c-0.8-5.5-1.5-11.1-2.1-16.7l-3,0.3c0.6,5.6,1.3,11.2,2.1,16.8L57,39.6z"/>
<path class="st0" d="M76.2,32.4l-2.4-1.8c-3.2,4.3-6.3,8.8-9.3,13.2l2.5,1.7C69.9,41.1,73,36.7,76.2,32.4z"/>
<path class="st0" d="M74.5,53.8c8-0.9,16.1-1.5,24.1-1.7l-0.1-3c-8.1,0.2-16.4,0.8-24.4,1.7L74.5,53.8z"/>
<path class="st0" d="M37.6,64.8c-5.3,1.6-10.8,3-16.2,4.4l0.7,2.9c5.5-1.3,11-2.8,16.4-4.4L37.6,64.8z"/>
<path class="st0" d="M41.9,75.9c-1.9,5.7-4.2,11.4-6.7,16.8L38,94c2.6-5.6,4.8-11.3,6.8-17.1l1.8-5.1l-2.8-1L41.9,75.9z"/>
<path class="st0" d="M55.5,75.9c0.3,6.7,0.9,13.3,2,19.9l3-0.5c-1-6.5-1.7-13-1.9-19.5L55.5,75.9z"/>
</svg>
