<?xml version="1.0" encoding="utf-8"?>
<!-- Generator: Adobe Illustrator 21.0.0, SVG Export Plug-In . SVG Version: 6.00 Build 0)  -->
<svg version="1.1" id="Layer_1" xmlns="http://www.w3.org/2000/svg" xmlns:xlink="http://www.w3.org/1999/xlink" x="0px" y="0px"
	 viewBox="0 0 120 120" style="enable-background:new 0 0 120 120;" xml:space="preserve">
<style type="text/css">
	.st0{fill:#1D0E4C;}
</style>
<title>virus</title>
<g>
	<path class="st0" d="M95.6,76.9c-0.2-0.5-0.5-0.9-0.7-1.4c-1-2-0.3-3.8,0.6-6.1l0.3-0.8c0.9-2.7,1.4-5.6,1.3-8.5
		c0-4.8-1-9.5-3-13.9c-0.4-1-1.3-2.2-2.1-3.5c-1.4-2.1-3.5-5.2-3.1-6.6c0.4-0.7,0.9-1.4,1.5-1.9l0.1-0.1c0.9-0.9,1.8-2,2.5-3.1
		l0.6-1.1l-0.9-0.8c-1-0.9-1.4-0.7-6,2.4l-1,0.7c-0.8,0.5-1.8,0.5-2.7,0.1c-1.4-0.5-2.6-1.3-4-2.1c-1.5-0.9-3.1-1.9-4.9-2.5
		c-1.2-0.4-2.5-0.6-3.7-0.7c-1-0.1-2-0.2-2.7-0.4c-0.3-0.2-0.5-0.4-0.7-0.6l-0.1-0.1c-0.3-0.4-0.3-1.4-0.3-2.2
		c0-1.4-0.1-3.5-1.9-4.2c-1-0.8-1.9-0.7-2.4-0.5c-1.5,0.5-1.9,2.2-2.2,3.5c-0.1,0.4-0.2,0.8-0.3,1l0,0.1c-0.3,0.9-0.7,1.6-1.2,2.3
		c-0.7,0.8-2.8,1-4.5,1.2c-1.3,0.2-2.6,0.3-3.6,0.7c-3.3,1.2-6.4,2.7-9.4,4.6l-0.1,0.1c-0.2,0.2-0.5,0.3-0.7,0.3
		c-0.4-0.1-0.8-0.4-1.1-0.8l-2.6-3.1L36,28.9c-1.6,0.1-2.8,1.6-2.7,3.2l0,0.2c0.1,0.5,0.3,0.9,0.5,1.3c0.9,2.3,0,5.1-0.9,7
		C29.5,47.8,28,53.8,28,60.2c0,2.3-0.1,4.3-1.1,6.2c-0.2,0.1-0.6,0.1-0.9,0.2c-1.1,0.1-3.7,0.5-3.7,3.5c-0.1,0.9,0.2,1.5,0.5,1.9
		c0.8,1,2.2,1.1,3.5,1.2c0.6,0,1.6,0.1,1.9,0.3l3.2,2.5c1.6,1.2,2.8,3,4,4.8c1.2,1.8,2.5,3.8,4.3,5.3c3.7,3.3,8,5.7,12.8,7.1
		c1.6,0.5,3.4,0.7,5.4,0.9c3.1,0.3,6.2,0.6,7.8,2c0.2,0.3,0.4,1.4,0.4,2c0.2,1.3,0.3,2.4,1.4,2.9c0.2,0.1,0.5,0.2,0.7,0.2
		c0.3,0,0.6-0.1,0.8-0.2c2-0.6,2.4-2.9,2.7-4.9c0.4-2.1,0.7-3.6,1.7-3.8c4.6-0.8,8.7-3.1,12-6.5c0.5-0.5,0.9-1.1,1.2-1.7
		c0.7-1,1.3-1.9,2.1-2.3c0.8-0.2,1.7-0.1,2.6,0.3c0.4,0.2,0.8,0.4,1.3,0.7c0.7,0.4,1.4,0.8,2.3,1.1c1.2,0.5,2-0.2,2.2-0.4
		C98.3,82.4,97.5,80.7,95.6,76.9z M94.2,60.2c0.1,2.6-0.3,5.1-1.1,7.4l-0.3,0.7c-1,2.5-2.1,5.3-0.5,8.5c0.2,0.5,0.5,0.9,0.7,1.4
		c0.2,0.5,0.5,1.1,0.8,1.7c-0.3-0.2-0.6-0.3-0.8-0.4c-1.5-0.8-3.2-1-4.9-0.5L88,79c-1.7,0.7-2.7,2.1-3.6,3.4c-0.3,0.5-0.7,1-1,1.3
		c-2.8,2.9-6.4,4.8-10.4,5.6c-3.1,0.7-3.7,3.9-4,6.2c0,0.1,0,0.1,0,0.2c-0.2-0.7-0.5-1.4-1.1-1.9c-2.3-2-6-2.4-9.5-2.7
		c-1.8-0.2-3.6-0.4-4.8-0.7c-4.3-1.3-8.3-3.5-11.7-6.5c-1.5-1.3-2.6-3-3.8-4.7c-1.3-2-2.7-4-4.7-5.5l-3.2-2.5
		c-1-0.8-2.4-0.9-3.6-0.9c-0.4,0-0.8,0-1.2-0.1c0-0.2,0-0.3,0-0.3c0.1-0.1,0.7-0.2,1-0.2c1-0.1,2.4-0.3,3.2-1.6
		c1.4-2.5,1.5-5.1,1.5-7.7c0-5.9,1.4-11.5,4.5-18.3c1.5-3.1,1.9-5.9,1.3-8.4l0,0.1c0.7,1.1,1.9,1.9,3.2,2.1l0.2,0l0.2,0
		c0.9-0.1,1.7-0.4,2.5-0.9c2.8-1.7,5.7-3.2,8.8-4.3c0.7-0.3,1.8-0.4,3-0.6c2.4-0.3,4.9-0.6,6.4-2.2c0.8-1,1.4-2.1,1.8-3.3
		c0.2-0.4,0.3-0.9,0.4-1.4c0.1-0.3,0.2-0.7,0.3-1l0.3,0.1c0.1,0.3,0.1,1,0.1,1.5c0,1.3,0,2.8,1,4c0.5,0.7,1.1,1.2,1.8,1.6l0.1,0.1
		c1.1,0.5,2.4,0.6,3.6,0.7c1.1,0.1,2.2,0.2,3,0.5c1.5,0.5,2.9,1.4,4.3,2.3c1.4,0.9,2.9,1.8,4.4,2.4c1.3,0.5,2.7,0.6,4,0.2
		c-0.8,2.8,1.5,6.2,3.5,9.1c0.8,1.1,1.5,2.2,1.9,3C93.3,51.5,94.2,55.8,94.2,60.2L94.2,60.2z"/>
	<path class="st0" d="M67.8,40.3c1-0.6,1.5-0.9,2.4-0.6c1,0.3,2.8,1.9,4.2,3c2,1.7,2.9,2.4,3.9,2.4v-3c0.2,0,0.3,0.1,0.3,0.1
		c-0.4-0.2-1.5-1.1-2.3-1.7c-1.8-1.5-3.7-3.1-5.3-3.6c-2.1-0.6-3.5,0.2-4.7,0.9c-1,0.6-1.8,1-3.1,0.9l-0.4,3
		C65.1,41.8,66.7,40.9,67.8,40.3z"/>
	<path class="st0" d="M77.3,53.3c-0.2-0.4-0.2-0.9,0.1-1.3l-2.3-2c-1.1,1.3-1.3,3.2-0.5,4.7c0.7,1.2,1.7,2.2,2.9,2.7l0.3,0.2
		c0.3,0.1,0.7,0.4,1,0.6c-1,0.5-1.8,1.3-2.4,2.2l-0.2,0.3c-0.4,1.1-0.6,2.2-0.6,3.3c-0.3,0.8-0.8,1.5-1.6,2l1.6,2.6
		c1.5-0.9,2.5-2.3,2.9-3.9l0.1-0.2l0-0.2c0-0.8,0.1-1.5,0.3-2.2c0.5-0.6,1.1-1.1,1.9-1.4c0.5-0.1,0.9-0.4,1.1-0.8l0.1-0.2l0.1-0.2
		c0.1-0.3,0.1-0.7,0-1c-0.2-1.9-2-2.8-3.1-3.4l-0.4-0.2C78.2,54.5,77.6,53.9,77.3,53.3z"/>
	<path class="st0" d="M53.3,81.8c-0.1,0.1-0.2,0.3-0.3,0.4c0.1-0.9,0-1.9-0.3-2.8l-0.1-0.3c-0.6-1.1-1.5-2-2.6-2.5
		c-1.4-0.8-2.8-1.6-4.3-2.2l-1.2,2.8c1.4,0.6,2.7,1.3,3.9,2l0.1,0.1c0.5,0.3,1,0.7,1.3,1.2c0.2,0.6,0.2,1.3,0.1,1.9l0,0.4
		c0,1,0,2.3,0.8,3.1c0.4,0.4,0.9,0.6,1.5,0.6c1.4,0,2.3-1.3,3.5-3.1c1.1-1.6,2.6-3.8,4-4.1l-0.7-2.9C56.5,77.1,54.7,79.7,53.3,81.8z
		"/>
	<path class="st0" d="M43,67.3c-0.6-0.8-1.4-1-2-1.1c0.3-0.5,0.5-1,0.7-1.5l0.1-0.2l0-0.3c-0.1-1.8-0.6-3.6-1.5-5.2l-2.6,1.5
		c0.6,1.1,1,2.3,1.1,3.6c-0.1,0.2-0.2,0.5-0.4,0.7c-0.7,0.9-0.8,2-0.3,3l0.1,0.2c0.6,0.9,1.6,1.1,2.2,1.2c0.1,0,0.2,0,0.3,0.1
		c0.3,0.7,0.6,1.5,0.8,2.3l2.9-0.7c-0.3-1.1-0.6-2.1-1.1-3.1L43,67.3z"/>
	<path class="st0" d="M88.5,54.1c-0.2-0.9-0.2-1.8-0.1-2.8l0-0.1l0-0.1c-0.2-2.3-1.4-4.4-3.4-5.6L83.4,48c1.1,0.7,1.9,1.9,2,3.2
		c-0.1,1.2,0,2.4,0.2,3.6l0.1,0.3c0.4,0.8,0.9,1.6,1.4,2.3c0.2,0.3,0.3,0.7,0.2,1l2.9,0.6c0.3-1.2,0-2.5-0.8-3.5
		C89.1,55.2,88.8,54.6,88.5,54.1z"/>
	<path class="st0" d="M68.1,66.5c-0.3-1,0.4-2.5,1.6-3.1l-1.4-2.7c-2.5,1.3-3.9,4.4-3,6.8c0.2,0.7,0.1,1-1.3,1.9
		c-0.4,0.3-0.8,0.5-1,0.8l2.4,1.8c-0.1,0.1-0.1,0.1-0.1,0.1c0.1-0.1,0.2-0.1,0.4-0.2C66.5,71.3,69.2,69.7,68.1,66.5z"/>
	<path class="st0" d="M65.1,48.8c1.1,0,2.1,0.4,3,1.1l1.8-2.4c-1.4-1.1-3.1-1.6-4.9-1.7l-0.1,0l-0.1,0c-1.1,0.2-2.2,0.6-3.1,1.1
		l1.5,2.6C63.7,49.1,64.4,48.9,65.1,48.8z"/>
	<path class="st0" d="M54.8,36.7c1.5-0.1,2.9-0.8,3.9-1.9l-2.3-2c-0.5,0.5-1.1,0.8-1.8,0.9c-1.4,0.1-2.7,0.5-3.8,1.2l1.6,2.5
		C53.1,37,53.9,36.8,54.8,36.7z"/>
	<path class="st0" d="M48.2,58.2c0-1.8-0.3-3.6-0.9-5.3c-0.2-1.1-0.4-2.6,0.3-3.5c0.4-0.6,1.5-1,2.5-1.4c0.6-0.3,1.3-0.5,1.9-0.9
		c1.8-1,3.1-2.6,3.8-4.5l-2.8-1c-0.5,1.2-1.3,2.3-2.5,2.9c-0.5,0.3-1,0.5-1.6,0.7c-1.4,0.6-2.7,1.1-3.7,2.3c-1.1,1.5-1.4,3.5-0.9,6
		l0,0.1c0.5,1.4,0.7,2.9,0.7,4.4L48.2,58.2z"/>
	<path class="st0" d="M61.3,57.7c-1.7,2.4-4.4,4-7.2,4.3c-0.7,0-1.3,0.2-2,0.3L52,62.4C50.8,63,49.7,63.9,49,65l2.5,1.6
		c0.4-0.6,0.9-1.1,1.6-1.4c0.4-0.1,0.8-0.2,1.3-0.2c3.8-0.5,7.2-2.5,9.4-5.6L61.3,57.7z"/>
	<path class="st0" d="M42.4,43.7l-2.1-2.1c-2.4,2.4-3.7,5.8-3.4,9.3l3-0.2C39.6,48,40.6,45.5,42.4,43.7z"/>
	<path class="st0" d="M80.1,74.8L80.1,74.8l0,0.2c0,0.5,0,0.9-0.2,1.4c-0.2,0.3-0.4,0.5-0.7,0.6c-1,0.5-2.2,0.8-3.5,1.1
		c-0.6,0.1-1.2,0.3-1.8,0.4c-2.8,0.8-4.8,2.3-5.6,4.3l2.8,1.1c0.6-1.5,2.5-2.2,3.6-2.5c0.6-0.2,1.1-0.3,1.7-0.4
		c1.4-0.3,2.9-0.6,4.2-1.3c0.9-0.4,1.6-1.1,2.1-1.9l0.1-0.2c0.3-0.9,0.5-1.8,0.4-2.7c0.1-2.4,1-4.7,2.5-6.5l-2.3-1.9
		C81.3,68.7,80.2,71.7,80.1,74.8z"/>
</g>
</svg>
